<?xml version="1.0" encoding="UTF-8"?>
<svg width="375px" height="697px" viewBox="0 0 375 697" version="1.1" xmlns="http://www.w3.org/2000/svg" xmlns:xlink="http://www.w3.org/1999/xlink">
    <!-- Generator: Sketch 60.1 (88133) - https://sketch.com -->
    <title>nv1</title>
    <desc>Created with Sketch.</desc>
    <defs>
        <path d="M65.2180234,20.0217663 C61.6731062,8.20396328 64.9308195,1.58528284 74.9911633,0.165724948 C90.081679,-1.96361189 91.6254058,17.0760356 88.3140031,20.0217663 C101.071204,19.4821105 110.757737,26.7671342 117.373603,41.8768373 C127.297402,64.541392 120.809219,76.5148396 140.504188,85.9018883 C160.199157,95.288937 162.547665,133.330719 137.74703,143.467034 C112.946395,153.603349 41.4651086,157.28276 17.1194048,148.076155 C-7.22629902,138.869549 -4.13434343,98.1843217 17.1194048,83.5642575 C38.373153,68.9441933 33.5185858,77.5533479 34.9887417,65.099146 C34.624403,39.7642825 44.7008302,24.7384892 65.2180234,20.0217663 Z" id="path-1"></path>
        <path d="M2.45966862,3.65126087 L0,37.9568335 C9.71688729,53.6316732 24.9776673,55.8483994 45.7823399,44.6070122 L47.3285028,0 L2.45966862,3.65126087 Z" id="path-3"></path>
        <path d="M9.09494702e-13,2.09105136 L9.09494702e-13,51.7268615 C23.1954048,59.4790519 38.4397914,58.6413949 45.73316,49.2138906 L42.8974091,0 L9.09494702e-13,2.09105136 Z" id="path-5"></path>
        <path d="M124.168074,0.824255065 C77.383804,-0.174403053 36.1717064,18.9911977 0.53178093,58.3210572 L63.1914406,130.65194 L81.4447344,97.5905094 L84.3601222,217.288952 L235.578952,211.352831 L229.26786,97.5905094 L253.587014,121.760437 L300.988006,58.3210572 C267.944198,17.0577739 221.168827,-2.10782686 160.661893,0.824255065 C157.272928,7.45202779 151.644564,10.7064022 143.776802,10.5873782 C135.359058,11.3383518 128.822815,8.08397738 124.168074,0.824255065 Z" id="path-7"></path>
        <path d="M160.64904,0.558332537 C160.553964,0.562939828 160.4686,0.61808631 160.425219,0.702924373 C157.083243,7.23880143 151.549104,10.4386939 143.780818,10.3211748 C135.434642,11.0643202 128.993416,7.8572545 124.391822,0.680422826 C124.343999,0.605836186 124.262241,0.559970907 124.173741,0.558081777 C77.3095833,-0.442281628 36.0247866,18.7571277 0.334867364,58.142157 C0.24442407,58.2419643 0.242730849,58.3937015 0.330924362,58.4955072 L62.9905841,130.82639 L63.02596,130.860483 C63.1511266,130.960757 63.3428605,130.927966 63.4241409,130.780747 L81.2024162,98.5789091 L84.0943107,217.295443 C84.0979284,217.443977 84.2222656,217.560802 84.3705383,217.55519 L235.589368,211.618861 L235.637479,211.612586 C235.761805,211.584659 235.851756,211.470071 235.844433,211.338065 L229.571423,98.2674156 L253.399702,121.949392 C253.514349,122.063336 253.703147,122.049435 253.799915,121.919924 L301.200908,58.480545 C301.273544,58.3833322 301.271297,58.2492285 301.195446,58.1545096 C268.096048,16.8218097 221.237875,-2.37771819 160.64904,0.558332537 Z M300.650857,58.3275584 L253.55687,121.35574 L229.455172,97.4015542 L229.419116,97.3711853 C229.244537,97.2478374 228.98977,97.3779926 229.002379,97.6052753 L235.298172,211.097286 L84.6191087,217.011935 L81.7105458,97.5840185 L81.7052992,97.5352937 C81.6597446,97.3027416 81.3350513,97.2388869 81.2120341,97.461703 L63.1426041,130.189377 L0.887542372,58.3254286 L1.7980573,57.3277596 C36.7849614,19.233363 77.1017225,0.484069419 122.762945,1.06655841 L124.021417,1.08783117 L123.944325,0.968087305 C128.652214,8.31070027 135.283474,11.6123833 143.800399,10.8525615 L144.0797,10.8554271 C151.781563,10.8953025 157.368713,7.66452408 160.776349,1.18133424 L160.826507,1.08303896 L160.674746,1.09017759 C220.495528,-1.80865439 266.857123,16.9133105 299.786809,57.2584075 L300.650857,58.3275584 Z" id="path-9"></path>
        <path d="M54.0510938,0.427550011 L65.6966516,1.13686838e-13 L74.6595994,61.6292822 L146.239756,61.6292822 L153.319243,0.427550011 L165.204569,0.427550011 L156.875374,61.6292822 L169.395542,62.8363442 C168.044839,89.3534909 178.205951,110.327253 199.878877,125.757629 C195.04223,143.912688 193.668472,160.106144 195.757604,174.337997 C198.891303,195.685777 197.928846,202.07638 210.558643,226.960451 C218.978508,243.549832 239.195052,331.002111 271.208274,489.317289 L156.875374,495.057854 L121.246052,278.876035 L108.217419,495.057854 L0,498.252659 C12.052885,325.899574 20.2850331,235.380094 24.6964443,226.694217 C29.6287467,216.982729 34.1138162,183.402736 34.1138162,179.864894 C34.1138162,170.601632 31.78282,152.120163 27.1208274,124.420487 C41.2061675,118.376629 51.6406546,97.2687383 58.4242887,61.0968146 L54.3902746,6.76238024 L54.0510938,0.427550011 Z" id="path-11"></path>
        <path d="M52.3480152,13.2741427 L5.38270137,110.894227 C-4.78532102,137.694888 -0.54765672,155.710124 18.0956943,164.939935 C46.0607208,178.784652 71.9848114,151.978578 76.931089,137.166063 C80.2286075,127.291052 87.1673043,106.935617 97.7471796,76.0997551 C100.903461,69.483758 104.302055,65.7646616 107.942964,64.9424658 C113.404328,63.709172 138.509792,45.0556715 142.879841,40.8960797 C147.368257,36.899291 146.412865,34.4191749 145.363063,32.8584066 C144.31326,31.2976382 142.587891,30.919626 140.524863,31.3745898 L133.486282,35.7146101 L145.00268,28.3363481 C146.410368,26.6967719 146.530496,24.8916827 145.363063,22.9210806 C143.774548,20.9363289 141.371542,21.2800363 139.847225,21.7734759 C138.831014,22.1024357 135.743757,23.7455364 130.585452,26.7027782 L142.879841,19.8675773 C144.566508,18.1861348 145.088025,16.2611789 144.444392,14.0927094 C143.478941,10.8400052 139.9334,10.0944742 137.263731,10.8502488 L124.28763,17.7901339 L138.049311,10.51004 C140.866797,7.69072264 141.433781,5.00813414 139.750263,2.46227449 C138.076899,-0.882871546 133.536794,-0.188808084 130.585452,0.888014639 C128.617891,1.60589645 118.44309,7.23993621 100.061048,17.7901339 L100.061048,8.35681707 C91.3282017,9.95447887 86.5882056,13.244826 85.8410599,18.2278586 C84.7203412,25.7024074 87.6970634,28.8132008 85.4267622,32.8584066 L80.2996871,45.9897781 L52.3480152,13.2741427 Z" id="path-13"></path>
        <path d="M98.6638994,13.2672119 L146.724616,98.5805785 C154.231207,113.999762 151.91217,129.475978 139.767505,145.009226 C121.550508,168.309097 89.9335551,147.671104 81.0697105,131.931455 C75.1604807,121.438356 64.2504042,102.943521 48.3394809,76.4469518 C46.1175703,71.7517109 43.7743485,69.0644206 41.3098154,68.3850811 C37.6130158,67.3660718 23.4283105,59.010894 15.1866937,53.1435886 C6.94507689,47.2762833 -2.47954317,39.8931558 0.899831531,35.5789179 C3.04068716,32.5048422 6.30195333,34.3987061 12.1730678,38.8163529 L0.419230171,28.6716528 C-0.854534732,24.3909551 0.774301024,21.9067224 5.30573744,21.2189546 L14.9301408,28.2782489 L3.91868137,19.7729257 C2.20871674,17.5904241 2.20871674,15.4218528 3.91868137,13.2672119 C6.36986439,11.0615893 8.16886057,11.7780417 10.2160598,12.5526285 L21.4397353,20.0423725 L8.46824155,11.4004333 C4.64765471,8.12231905 4.20997249,4.87416678 7.15519488,1.65597645 C9.31287055,-0.551992151 12.3607422,-0.551992151 16.2988099,1.65597645 L41.3098154,18.0503287 C45.9962591,19.6930034 48.3394809,19.1773882 48.3394809,16.503483 L48.3394809,6.89835088 C55.8867023,8.52234134 59.660313,11.1190092 59.660313,14.6883545 C59.660313,18.2576999 59.660313,23.1799046 59.660313,29.4549689 C59.459095,32.817137 60.7060659,35.9375983 63.4012257,38.8163529 L72.893683,47.798882 L98.6638994,13.2672119 Z" id="path-15"></path>
        <path d="M110.46971,656.620881 C72.39754,654.410615 56.6100772,667.664815 63.1073219,696.38348 L175.028984,696.467532 C181.356326,682.035432 178.052485,670.194946 165.117462,660.946075 C165.532179,652.781323 164.593079,648.829306 162.300161,649.090024 C158.860784,649.4811 157.719731,650.683516 157.719731,653.652198 C154.418979,659.146732 148.388968,662.234488 139.629697,662.915468 C130.870425,663.596448 121.15043,661.498252 110.46971,656.620881 Z" id="path-17"></path>
    </defs>
    <g id="页面-1" stroke="none" stroke-width="1" fill="none" fill-rule="evenodd">
        <g id="画板" transform="translate(-2169.000000, -1556.000000)">
            <g id="女" transform="translate(2169.000000, 1446.000000)">
                <g id="nv1" transform="translate(0.000000, 110.000000)">
                    <g id="编组-93" transform="translate(97.847691, 0.000000)">
                        <mask id="mask-2" fill="white">
                            <use xlink:href="#path-1"></use>
                        </mask>
                        <use id="路径-84" fill="#2F1B16" xlink:href="#path-1"></use>
                        <path d="M88.3019274,19.9688374 C104.650633,21.595569 114.523751,32.8925527 117.898031,53.786606 L118.054853,54.8216615 C118.191715,55.7503799 118.325981,56.731159 118.490967,57.9955467 L119.292265,64.1936546 C119.353063,64.6400684 119.411534,65.055657 119.482052,65.5483425 L119.609848,66.4230568 C120.533292,72.6130464 121.626889,77.1276259 123.367846,81.1734204 C125.558398,86.2640247 128.686073,90.1897517 133.088213,93.0151522 L133.377119,93.1978581 C139.79856,97.1990453 142.801975,104.804486 142.170185,113.873859 C141.586299,122.255586 137.912979,130.909333 132.386816,136.775804 L132.145384,137.029102 L131.762862,136.65921 C137.334742,130.882185 141.055886,122.217394 141.639693,113.836809 C142.251924,105.048205 139.396702,97.7018607 133.305077,93.7822319 L133.096155,93.6499386 C128.444139,90.751277 125.158556,86.6804667 122.879469,81.3841182 C121.11704,77.2884255 120.013852,72.734786 119.084279,66.5042618 L118.778458,64.3615827 C118.687472,63.6964659 118.593608,62.9796372 118.448286,61.8463392 L117.903511,57.6057985 C117.70665,56.112554 117.551358,55.0175083 117.372829,53.8700884 C114.067789,33.4048123 104.52777,22.3221292 88.7299777,20.5495597 L88.2493413,20.4986951 L88.3019274,19.9688374 Z" id="路径-112" fill="#FFFFFF" fill-rule="nonzero" mask="url(#mask-2)"></path>
                        <path d="M34.0383131,72.2336476 C34.1386645,72.1263004 34.3069252,72.1207342 34.414134,72.2212152 C34.5213427,72.3216961 34.5269017,72.4901741 34.4265503,72.5975213 C13.6257211,94.8484347 8.40431321,115.67407 18.7142415,135.121928 C18.7830918,135.251802 18.7337582,135.412972 18.6040518,135.481911 C18.4743454,135.55085 18.3133834,135.501453 18.2445331,135.371579 C7.81500515,115.698118 13.0956268,94.6363074 34.0383131,72.2336476 Z" id="路径-114" fill="#FFFFFF" fill-rule="nonzero" mask="url(#mask-2)"></path>
                        <path d="M77.003654,50.8204661 C80.7388229,51.7548687 83.6045557,53.2092257 85.6008526,55.1835372 C88.5952978,58.1450045 88.3210389,65.3491744 98.9887995,62.7791389" id="路径-115" stroke="#FFFFFF" mask="url(#mask-2)" transform="translate(87.996227, 57.071942) rotate(4.000000) translate(-87.996227, -57.071942) "></path>
                    </g>
                    <path d="M168.464422,110.902531 C168.731753,122.113806 166.720149,131.000727 162.429611,137.563297 C155.993805,147.407151 191.957395,155.176813 197.290725,140.111174 C189.863984,136.706893 185.448066,126.876786 184.042974,110.620851 L175.834241,107.025974 L168.464422,110.902531 Z" id="路径-86" fill="#FFC7CA"></path>
                    <g id="编组-48" transform="translate(261.104437, 615.532468)">
                        <mask id="mask-4" fill="white">
                            <use xlink:href="#path-3"></use>
                        </mask>
                        <use id="路径-93" fill="#FFC7CA" xlink:href="#path-3"></use>
                        <polygon id="路径-105" fill="#000000" mask="url(#mask-4)" points="-0.53178093 21.2987013 47.3285028 17.9784006 47.3285028 10.6493506 -0.0251605228 13.3059304"></polygon>
                    </g>
                    <g id="编组-49" transform="translate(112.205776, 610.740260)">
                        <mask id="mask-6" fill="white">
                            <use xlink:href="#path-5"></use>
                        </mask>
                        <use id="路径-94" fill="#FFC7CA" xlink:href="#path-5"></use>
                        <polygon id="路径-106" fill="#000000" mask="url(#mask-6)" points="0 25.6461585 44.6695981 27.6883117 44.2269584 21.2987013 0 22.69148"></polygon>
                    </g>
                    <g id="编组-92" transform="translate(35.097541, 134.714286)">
                        <mask id="mask-8" fill="white">
                            <use xlink:href="#path-7"></use>
                        </mask>
                        <use id="路径-83" fill="#FFFFFF" xlink:href="#path-7"></use>
                        <g id="编组-2" opacity="0.640299479" mask="url(#mask-8)" fill="#DDE9FF">
                            <g transform="translate(164.739213, 114.156066) rotate(-4.000000) translate(-164.739213, -114.156066) translate(31.239213, 18.156066)">
                                <polygon id="矩形" transform="translate(66.080131, 145.998161) rotate(31.000000) translate(-66.080131, -145.998161) " points="52.8515087 143.912202 79.305764 143.931255 79.3087528 148.084121 52.8544975 148.065067"></polygon>
                                <polygon id="矩形备份" transform="translate(89.916450, 37.726016) rotate(-21.000000) translate(-89.916450, -37.726016) " points="76.6934074 35.6563397 103.141757 35.6419002 103.139492 39.795692 76.6911423 39.8101315"></polygon>
                                <polygon id="矩形备份" transform="translate(115.770291, 6.960943) rotate(-21.000000) translate(-115.770291, -6.960943) " points="102.547249 4.89126671 128.995599 4.87682723 128.993334 9.03061905 102.544984 9.04505853"></polygon>
                                <polygon id="矩形备份" transform="translate(109.044801, 95.629155) rotate(19.000000) translate(-109.044801, -95.629155) " points="95.8200687 93.5455406 122.26745 93.5588262 122.269534 97.7127699 95.8221527 97.6994843"></polygon>
                                <polygon id="矩形备份" transform="translate(35.678016, 8.825758) rotate(19.000000) translate(-35.678016, -8.825758) " points="22.4532833 6.74214336 48.9006647 6.755429 48.9027487 10.9093727 22.4553673 10.8960871"></polygon>
                                <polygon id="矩形" transform="translate(220.353164, 90.885204) rotate(31.000000) translate(-220.353164, -90.885204) " points="207.124542 88.7992445 233.578798 88.8182981 233.581787 92.9711635 207.127531 92.95211"></polygon>
                                <polygon id="矩形备份" transform="translate(226.998032, 62.247475) rotate(19.000000) translate(-226.998032, -62.247475) " points="213.773299 60.1638601 240.220681 60.1771458 240.222765 64.3310895 213.775383 64.3178038"></polygon>
                                <polygon id="矩形备份" transform="translate(159.223837, 117.151001) rotate(19.000000) translate(-159.223837, -117.151001) " points="145.999104 115.067386 172.446485 115.080672 172.448569 119.234615 146.001188 119.22133"></polygon>
                                <polygon id="矩形" transform="translate(100.194302, 130.772373) rotate(-30.000000) translate(-100.194302, -130.772373) " points="86.9689694 128.705233 113.422566 128.686544 113.419634 132.839513 86.9660379 132.858201"></polygon>
                                <polygon id="矩形" transform="translate(12.715825, 32.305561) rotate(-30.000000) translate(-12.715825, -32.305561) " points="-0.509507793 30.2384204 25.9440887 30.2197321 25.9411572 34.3727009 -0.5124393 34.3913892"></polygon>
                                <polygon id="矩形备份" transform="translate(75.747525, 111.957674) rotate(-82.000000) translate(-75.747525, -111.957674) " points="62.505427 109.886637 88.9905567 109.880689 88.9896236 114.028711 62.5044939 114.034659"></polygon>
                                <polygon id="矩形备份" transform="translate(20.644225, 75.970779) rotate(-117.000000) translate(-20.644225, -75.970779) " points="7.40386381 73.8899807 33.882615 73.9025542 33.8845865 78.0515765 7.40583527 78.039003"></polygon>
                                <polygon id="矩形备份" transform="translate(140.640164, 89.197914) rotate(-42.000000) translate(-140.640164, -89.197914) " points="127.410782 87.1328299 153.872912 87.1113687 153.869546 91.2629988 127.407415 91.28446"></polygon>
                                <polygon id="矩形备份" transform="translate(216.092973, 28.397484) rotate(-42.000000) translate(-216.092973, -28.397484) " points="202.863591 26.3324 229.325722 26.3109388 229.322355 30.4625689 202.860225 30.4840301"></polygon>
                                <polygon id="矩形" transform="translate(159.430724, 168.013537) rotate(-30.000000) translate(-159.430724, -168.013537) " points="146.205392 165.946396 172.658988 165.927708 172.656057 170.080677 146.20246 170.099365"></polygon>
                                <polygon id="矩形备份" transform="translate(44.688750, 52.154563) rotate(111.000000) translate(-44.688750, -52.154563) " points="31.4490404 50.0865936 57.9304457 50.0739259 57.928459 54.2225323 31.4470537 54.2352001"></polygon>
                                <polygon id="矩形" transform="translate(192.715578, 38.313160) rotate(67.000000) translate(-192.715578, -38.313160) " points="179.474673 36.2309358 205.954049 36.2464587 205.956484 40.3953836 179.477108 40.3798606"></polygon>
                                <polygon id="矩形备份" transform="translate(120.856146, 63.896084) rotate(15.000000) translate(-120.856146, -63.896084) " points="107.632451 61.8135852 134.078149 61.824375 134.079841 65.9785827 107.634144 65.967793"></polygon>
                                <polygon id="矩形备份" transform="translate(166.478933, 70.505928) rotate(55.000000) translate(-166.478933, -70.505928) " points="153.241459 68.4207299 179.713226 68.4410079 179.716407 72.5911265 153.24464 72.5708484"></polygon>
                                <polygon id="矩形" transform="translate(74.780115, 14.046932) rotate(40.000000) translate(-74.780115, -14.046932) " points="61.5481287 11.960374 88.0087677 11.9816256 88.0121013 16.1334897 61.5514623 16.1122381"></polygon>
                                <polygon id="矩形" transform="translate(144.750362, 34.311780) rotate(40.000000) translate(-144.750362, -34.311780) " points="131.518376 32.2252226 157.979015 32.2464743 157.982348 36.3983383 131.521709 36.3770867"></polygon>
                                <polygon id="矩形备份" transform="translate(142.254846, 138.975780) rotate(-12.000000) translate(-142.254846, -138.975780) " points="129.033199 136.902984 155.477871 136.894207 155.476494 141.048576 129.031822 141.057353"></polygon>
                                <polygon id="矩形备份" transform="translate(252.865211, 43.781555) rotate(-12.000000) translate(-252.865211, -43.781555) " points="239.643563 41.7087588 266.088235 41.6999817 266.086859 45.8543503 239.642186 45.8631275"></polygon>
                                <polygon id="矩形备份" transform="translate(72.970628, 180.987638) rotate(-42.000000) translate(-72.970628, -180.987638) " points="59.7428619 178.920942 86.2013456 178.902132 86.1983942 183.054334 59.7399104 183.073144"></polygon>
                                <polygon id="矩形备份" transform="translate(48.903228, 162.942670) rotate(43.000000) translate(-48.903228, -162.942670) " points="35.672498 160.859017 62.1315729 160.874214 62.1339575 165.026322 35.6748826 165.011125"></polygon>
                                <polygon id="矩形备份" transform="translate(164.571506, 14.852740) rotate(-12.000000) translate(-164.571506, -14.852740) " points="151.349858 12.7799439 177.794531 12.7711667 177.793154 16.9255353 151.348481 16.9343125"></polygon>
                                <polygon id="矩形备份" transform="translate(119.765576, 173.865680) rotate(28.000000) translate(-119.765576, -173.865680) " points="106.538013 171.78015 132.990333 171.798041 132.993139 175.95121 106.54082 175.933319"></polygon>
                            </g>
                        </g>
                        <mask id="mask-10" fill="white">
                            <use xlink:href="#path-9"></use>
                        </mask>
                        <use id="路径-83" fill="#000000" fill-rule="nonzero" xlink:href="#path-9"></use>
                    </g>
                    <g id="编组-6" transform="translate(77.640016, 136.981107)">
                        <mask id="mask-12" fill="white">
                            <use xlink:href="#path-11"></use>
                        </mask>
                        <use id="路径-351" fill="#95BDEC" xlink:href="#path-11"></use>
                        <path d="M52.6486946,195.509306 L53.1757104,195.580428 C48.4051758,231.021568 36.7300224,253.63084 18.1278772,263.380551 L17.5620556,263.672061 L17.3220783,263.196893 C35.8803315,253.800057 47.6146526,231.601878 52.5026685,196.574663 L52.6486946,195.509306 Z" id="路径-99" fill="#FFFFFF" fill-rule="nonzero" mask="url(#mask-12)"></path>
                        <path d="M178.662003,191.725567 C192.088096,228.22004 207.031892,248.790112 223.449638,253.456109 L223.947597,253.592635 L223.811946,254.107488 C207.149172,249.705922 192.083765,229.33502 178.571974,193.015106 L178.163001,191.909621 L178.662003,191.725567 Z" id="路径-100" fill="#FFFFFF" fill-rule="nonzero" mask="url(#mask-12)"></path>
                        <path d="M52.6469296,195.526732 L52.3571535,199.776579 L52.8876994,199.812848 L53.1774755,195.563001 L52.6469296,195.526732 Z M52.0673775,204.026426 L51.7776014,208.276273 L52.3081473,208.312542 L52.5979233,204.062695 L52.0673775,204.026426 Z M51.4878253,212.52612 L51.1980493,216.775967 L51.7285952,216.812236 L52.0183712,212.562389 L51.4878253,212.52612 Z M50.9082732,221.025814 L50.6184972,225.275662 L51.149043,225.31193 L51.4388191,221.062083 L50.9082732,221.025814 Z M50.3287211,229.525509 L50.0389451,233.775356 L50.5694909,233.811624 L50.859267,229.561777 L50.3287211,229.525509 Z M49.749169,238.025203 L49.4593929,242.27505 L49.9899388,242.311319 L50.2797149,238.061471 L49.749169,238.025203 Z M49.1696169,246.524897 L48.8798408,250.774744 L49.4103867,250.811013 L49.7001627,246.561166 L49.1696169,246.524897 Z M48.5900648,255.024591 L48.3002887,259.274438 L48.8308346,259.310707 L49.1206106,255.06086 L48.5900648,255.024591 Z M48.0105126,263.524285 L47.7207366,267.774132 L48.2512825,267.810401 L48.5410585,263.560554 L48.0105126,263.524285 Z M47.4309605,272.023979 L47.1411845,276.273826 L47.6717303,276.310095 L47.9615064,272.060248 L47.4309605,272.023979 Z M46.8514084,280.523673 L46.5616323,284.77352 L47.0921782,284.809789 L47.3819543,280.559942 L46.8514084,280.523673 Z M46.2718563,289.023367 L45.9820802,293.273214 L46.5126261,293.309483 L46.8024022,289.059636 L46.2718563,289.023367 Z M45.6923042,297.523061 L45.4025281,301.772908 L45.933074,301.809177 L46.22285,297.55933 L45.6923042,297.523061 Z M45.112752,306.022755 L44.822976,310.272603 L45.3535219,310.308871 L45.6432979,306.059024 L45.112752,306.022755 Z M44.5331999,314.52245 L44.2434239,318.772297 L44.7739697,318.808565 L45.0637458,314.558718 L44.5331999,314.52245 Z M43.9536478,323.022144 L43.6638717,327.271991 L44.1944176,327.308259 L44.4841937,323.058412 L43.9536478,323.022144 Z M43.3740957,331.521838 L43.0843196,335.771685 L43.6148655,335.807954 L43.9046416,331.558107 L43.3740957,331.521838 Z M42.7945436,340.021532 L42.5047675,344.271379 L43.0353134,344.307648 L43.3250894,340.057801 L42.7945436,340.021532 Z M42.2149915,348.521226 L41.9252154,352.771073 L42.4557613,352.807342 L42.7455373,348.557495 L42.2149915,348.521226 Z M41.6354393,357.02092 L41.3456633,361.270767 L41.8762091,361.307036 L42.1659852,357.057189 L41.6354393,357.02092 Z M41.0558872,365.520614 L40.7661112,369.770461 L41.296657,369.80673 L41.5864331,365.556883 L41.0558872,365.520614 Z M40.4763351,374.020308 L40.186559,378.270155 L40.7171049,378.306424 L41.006881,374.056577 L40.4763351,374.020308 Z M39.896783,382.520002 L39.6070069,386.769849 L40.1375528,386.806118 L40.4273289,382.556271 L39.896783,382.520002 Z M39.3172309,391.019696 L39.0274548,395.269544 L39.5580007,395.305812 L39.8477767,391.055965 L39.3172309,391.019696 Z M38.7376787,399.519391 L38.4479027,403.769238 L38.9784486,403.805506 L39.2682246,399.555659 L38.7376787,399.519391 Z M38.1581266,408.019085 L37.8683506,412.268932 L38.3988964,412.3052 L38.6886725,408.055353 L38.1581266,408.019085 Z M37.5785745,416.518779 L37.2887984,420.768626 L37.8193443,420.804895 L38.1091204,416.555048 L37.5785745,416.518779 Z M36.9990224,425.018473 L36.7092463,429.26832 L37.2397922,429.304589 L37.5295683,425.054742 L36.9990224,425.018473 Z M36.4194703,433.518167 L36.1296942,437.768014 L36.6602401,437.804283 L36.9500161,433.554436 L36.4194703,433.518167 Z M35.8399181,442.017861 L35.5501421,446.267708 L36.080688,446.303977 L36.370464,442.05413 L35.8399181,442.017861 Z M35.260366,450.517555 L34.97059,454.767402 L35.5011358,454.803671 L35.7909119,450.553824 L35.260366,450.517555 Z M34.6808139,459.017249 L34.566378,460.695563 L35.0969238,460.731832 L35.2113598,459.053518 L34.6808139,459.017249 Z" id="路径-101" fill="#FFFFFF" fill-rule="nonzero" mask="url(#mask-12)"></path>
                        <path d="M178.684433,191.87402 L179.698787,196.557361 L180.218488,196.444509 L179.204133,191.761168 L178.684433,191.87402 Z M180.713142,201.240701 L181.727497,205.924042 L182.247197,205.811191 L181.232842,201.12785 L180.713142,201.240701 Z M182.741851,210.607383 L183.756206,215.290724 L184.275906,215.177872 L183.261551,210.494531 L182.741851,210.607383 Z M184.77056,219.974065 L185.784915,224.657406 L186.304615,224.544554 L185.290261,219.861213 L184.77056,219.974065 Z M186.79927,229.340747 L187.813624,234.024087 L188.333324,233.911236 L187.31897,229.227895 L186.79927,229.340747 Z M188.827979,238.707428 L189.842334,243.390769 L190.362034,243.277917 L189.347679,238.594577 L188.827979,238.707428 Z M190.856688,248.07411 L191.871043,252.757451 L192.390743,252.644599 L191.376388,247.961258 L190.856688,248.07411 Z M192.885397,257.440792 L193.899752,262.124133 L194.419452,262.011281 L193.405098,257.32794 L192.885397,257.440792 Z M194.914107,266.807473 L195.928461,271.490814 L196.448161,271.377963 L195.433807,266.694622 L194.914107,266.807473 Z M196.942816,276.174155 L197.95717,280.857496 L198.476871,280.744644 L197.462516,276.061303 L196.942816,276.174155 Z M198.971525,285.540837 L199.98588,290.224178 L200.50558,290.111326 L199.491225,285.427985 L198.971525,285.540837 Z M201.000234,294.907519 L202.014589,299.590859 L202.534289,299.478008 L201.519934,294.794667 L201.000234,294.907519 Z M203.028943,304.2742 L204.043298,308.957541 L204.562998,308.84469 L203.548644,304.161349 L203.028943,304.2742 Z M205.057653,313.640882 L206.072007,318.324223 L206.591707,318.211371 L205.577353,313.52803 L205.057653,313.640882 Z M207.086362,323.007564 L208.100717,327.690905 L208.620417,327.578053 L207.606062,322.894712 L207.086362,323.007564 Z M209.115071,332.374245 L210.129426,337.057586 L210.649126,336.944735 L209.634771,332.261394 L209.115071,332.374245 Z M211.14378,341.740927 L212.158135,346.424268 L212.677835,346.311416 L211.663481,341.628076 L211.14378,341.740927 Z M213.17249,351.107609 L214.186844,355.79095 L214.706544,355.678098 L213.69219,350.994757 L213.17249,351.107609 Z M215.201199,360.474291 L216.215553,365.157631 L216.735254,365.04478 L215.720899,360.361439 L215.201199,360.474291 Z M217.229908,369.840972 L218.244263,374.524313 L218.763963,374.411462 L217.749608,369.728121 L217.229908,369.840972 Z M219.258617,379.207654 L220.272972,383.890995 L220.792672,383.778143 L219.778317,379.094802 L219.258617,379.207654 Z M221.287326,388.574336 L222.301681,393.257677 L222.821381,393.144825 L221.807027,388.461484 L221.287326,388.574336 Z M223.316036,397.941017 L224.33039,402.624358 L224.85009,402.511507 L223.835736,397.828166 L223.316036,397.941017 Z M225.344745,407.307699 L226.359099,411.99104 L226.8788,411.878188 L225.864445,407.194848 L225.344745,407.307699 Z M227.373454,416.674381 L228.387809,421.357722 L228.907509,421.24487 L227.893154,416.561529 L227.373454,416.674381 Z M229.402163,426.041063 L230.416518,430.724403 L230.936218,430.611552 L229.921864,425.928211 L229.402163,426.041063 Z M231.430873,435.407744 L232.445227,440.091085 L232.964927,439.978234 L231.950573,435.294893 L231.430873,435.407744 Z M233.459582,444.774426 L234.473936,449.457767 L234.993637,449.344915 L233.979282,444.661574 L233.459582,444.774426 Z M235.488291,454.141108 L236.116773,457.042851 L236.636473,456.929999 L236.007991,454.028256 L235.488291,454.141108 Z" id="路径-102" fill="#FFFFFF" fill-rule="nonzero" mask="url(#mask-12)"></path>
                        <path d="M3.53331385,462.548374 L7.78709931,462.485599 L7.77926255,461.953189 L3.52547709,462.015964 L3.53331385,462.548374 Z M12.0408848,462.422824 L16.2946702,462.360049 L16.2868335,461.827639 L12.033048,461.890414 L12.0408848,462.422824 Z M20.5484557,462.297274 L24.8022411,462.234499 L24.7944044,461.702089 L20.5406189,461.764864 L20.5484557,462.297274 Z M29.0560266,462.171724 L33.3098121,462.108949 L33.3019753,461.576539 L29.0481898,461.639314 L29.0560266,462.171724 Z M37.5635975,462.046174 L41.817383,461.983399 L41.8095462,461.450989 L37.5557608,461.513764 L37.5635975,462.046174 Z M46.0711684,461.920624 L50.3249539,461.857849 L50.3171171,461.325439 L46.0633317,461.388214 L46.0711684,461.920624 Z M54.5787393,461.795074 L58.8325248,461.732299 L58.824688,461.199889 L54.5709026,461.262664 L54.5787393,461.795074 Z M63.0863103,461.669524 L67.3400957,461.606749 L67.332259,461.074339 L63.0784735,461.137114 L63.0863103,461.669524 Z M71.5938812,461.543974 L75.8476666,461.481199 L75.8398299,460.948789 L71.5860444,461.011564 L71.5938812,461.543974 Z M80.1014521,461.418424 L84.3552376,461.355649 L84.3474008,460.823239 L80.0936153,460.886014 L80.1014521,461.418424 Z M88.609023,461.292874 L92.8628085,461.230098 L92.8549717,460.697689 L88.6011863,460.760464 L88.609023,461.292874 Z M97.1165939,461.167323 L101.370379,461.104548 L101.362543,460.572139 L97.1087572,460.634914 L97.1165939,461.167323 Z M105.624165,461.041773 L109.81668,460.979903 L109.808844,460.447493 L105.616328,460.509364 L105.624165,461.041773 Z" id="路径-185" fill="#FFFFFF" fill-rule="nonzero" mask="url(#mask-12)"></path>
                        <path d="M154.56883,462.548052 L158.817467,462.329361 L158.790166,461.797596 L154.541529,462.016286 L154.56883,462.548052 Z M163.066105,462.11067 L167.314742,461.89198 L167.287441,461.360214 L163.038804,461.578905 L163.066105,462.11067 Z M171.563379,461.673289 L175.812017,461.454598 L175.784716,460.922833 L171.536078,461.141524 L171.563379,461.673289 Z M180.060654,461.235907 L184.309291,461.017217 L184.28199,460.485451 L180.033353,460.704142 L180.060654,461.235907 Z M188.557928,460.798526 L192.806566,460.579835 L192.779265,460.04807 L188.530627,460.266761 L188.557928,460.798526 Z M197.055203,460.361145 L201.30384,460.142454 L201.276539,459.610689 L197.027902,459.829379 L197.055203,460.361145 Z M205.552478,459.923763 L209.801115,459.705073 L209.773814,459.173307 L205.525177,459.391998 L205.552478,459.923763 Z M214.049752,459.486382 L218.29839,459.267691 L218.271089,458.735926 L214.022451,458.954616 L214.049752,459.486382 Z M222.547027,459.049 L226.795664,458.83031 L226.768363,458.298544 L222.519726,458.517235 L222.547027,459.049 Z M231.044301,458.611619 L235.292939,458.392928 L235.265638,457.861163 L231.017,458.079854 L231.044301,458.611619 Z M239.541576,458.174238 L243.790213,457.955547 L243.762912,457.423782 L239.514275,457.642472 L239.541576,458.174238 Z M248.038851,457.736856 L252.287488,457.518165 L252.260187,456.9864 L248.01155,457.205091 L248.038851,457.736856 Z M256.536125,457.299475 L260.784763,457.080784 L260.757462,456.549019 L256.508824,456.767709 L256.536125,457.299475 Z" id="路径-185" fill="#FFFFFF" fill-rule="nonzero" mask="url(#mask-12)"></path>
                        <path d="M197.162966,186.785542 L197.418484,187.819287 C140.385088,201.953021 85.9694992,203.571665 34.177078,192.672254 L32.6084136,192.338137 L32.8322386,191.297051 C84.4105198,202.414618 138.611346,201.052882 195.440079,187.208878 L197.162966,186.785542 Z" id="路径-352" fill="#FFFFFF" fill-rule="nonzero" mask="url(#mask-12)"></path>
                        <polygon id="路径-97" fill="#000000" mask="url(#mask-12)" points="121.246052 278.876035 170.920917 494.525386 156.875374 495.057854"></polygon>
                        <polygon id="路径-98" fill="#000000" mask="url(#mask-12)" points="108.485065 495.057854 101.570158 495.057854 121.246052 279.917765"></polygon>
                    </g>
                    <path d="M145.707975,67.1496425 C147.207669,100.830016 157.195866,117.670203 175.672565,117.670203 C192.333769,118.012739 202.021467,101.172552 204.735658,67.1496425 C204.159904,63.9775638 201.810795,62.9875974 197.688331,64.1797435 C191.504635,65.9679626 186.617599,66.7571563 184.154594,61.9581147 C181.69159,57.1590731 182.369815,54.1256099 175.221816,52.1805223 C170.456484,50.8837973 168.25515,47.5119349 168.617814,42.0649351 C165.240977,43.4012815 163.30979,46.216827 162.824253,50.5115717 C162.338716,54.8063164 156.63329,60.35234 145.707975,67.1496425 Z" id="路径-85" fill="#FFC7CA"></path>
                    <path d="M168.520083,41.817338 C165.109677,43.1669688 163.128972,45.9888445 162.588589,50.2437667 L162.56005,50.4816254 C162.087183,54.6642985 156.424429,60.1688422 145.567645,66.9235074 C145.485976,66.974319 145.438066,67.0653209 145.442083,67.1615007 C146.932502,100.627616 156.812751,117.595338 175.115362,117.931346 L175.672565,117.936437 C192.516726,118.28279 202.276681,101.317 205.000704,67.1708413 L204.997263,67.1020367 C204.398722,63.8044103 201.950061,62.7256384 197.809865,63.8687527 L197.115181,64.066497 C189.796713,66.1268634 186.415397,65.7806981 184.391086,61.8364272 C184.121321,61.310805 183.877898,60.7852641 183.62841,60.1991654 L183.451291,59.7749983 C183.255313,59.2951069 182.843062,58.2588691 182.799896,58.1527495 L182.653161,57.8002326 C181.278301,54.575525 179.724598,53.1646091 175.519377,51.986506 L175.291547,51.923607 C170.652952,50.6613693 168.52859,47.4074078 168.883116,42.0826446 C168.896105,41.8875646 168.701676,41.7454747 168.520083,41.817338 Z M168.181897,42.5421352 L168.328872,42.4749351 L168.327744,42.5065132 C168.110299,47.8086721 170.395907,51.1432034 175.152086,52.4374376 C179.441144,53.6045608 180.879632,54.9193523 182.236068,58.1801723 L182.987703,60.0464208 L183.011968,60.1051813 C183.311565,60.8268056 183.596188,61.4525668 183.918103,62.0798023 C185.129631,64.440403 186.964476,65.6069824 189.505616,65.8045864 C191.47451,65.9576914 193.734969,65.5710687 197.162868,64.6065395 L197.95359,64.3813603 C201.755102,63.3304434 203.869206,64.2203467 204.44647,67.0539485 L204.46764,67.1627922 L204.470612,67.1284437 C201.793296,100.689108 192.342429,117.406677 176.170149,117.409069 L175.131555,117.399011 C157.362468,117.071436 147.650212,100.6947 146.020952,68.1394281 L145.980778,67.2927143 L146.50164,66.9668836 C156.962135,60.3807086 162.486827,54.9716008 163.071935,50.6740768 L163.088456,50.541518 C163.537087,46.5732201 165.231749,43.9183892 168.181897,42.5421352 Z" id="路径-85" fill="#000000" fill-rule="nonzero"></path>
                    <rect id="矩形" fill="#FFCE66" x="99.9748148" y="135.246753" width="32.4386367" height="100.636364" rx="13"></rect>
                    <rect id="矩形" fill="#FFCE66" x="239.833199" y="133.116883" width="32.4386367" height="100.636364" rx="13"></rect>
                    <path d="M114.53054,272.090909 C116.803745,288.08733 114.601261,306.172986 107.923087,326.347878 C96.8631219,349.427251 98.2750553,391.856035 101.96032,400.415584 L90.3114149,399.49629 C87.1989451,368.034957 88.9173285,345.207167 95.4665651,331.01292 C102.015802,316.818672 106.167976,297.753675 107.923087,273.817928 L114.53054,272.090909 Z" id="路径-96" fill="#FFCE66"></path>
                    <path d="M256.957701,274.220779 C254.88321,301.62261 257.857476,321.92767 265.880499,335.135958 C273.903521,348.344246 277.59349,361.584641 276.950406,374.857143 L287.161702,374.857143 C287.100345,359.800971 283.018157,344.612116 274.915137,329.290579 C262.760607,306.308274 265.880499,278.279411 265.880499,276.250095 C265.880499,274.897218 262.906233,274.220779 256.957701,274.220779 Z" id="路径-95" fill="#FFCE66"></path>
                    <path d="M109.546872,248.662338 C114.833373,248.662338 119.118928,252.947893 119.118928,258.234394 L119.118928,267.843528 C119.118928,273.130029 114.833373,277.415584 109.546872,277.415584 C104.260371,277.415584 99.9748148,273.130029 99.9748148,267.843528 L99.9748148,258.234394 C99.9748148,252.947893 104.260371,248.662338 109.546872,248.662338 Z" id="矩形" fill="#D8D8D8"></path>
                    <path d="M261.104437,248.662338 C266.390938,248.662338 270.676493,252.947893 270.676493,258.234394 L270.676493,267.843528 C270.676493,273.130029 266.390938,277.415584 261.104437,277.415584 C255.817936,277.415584 251.53238,273.130029 251.53238,267.843528 L251.53238,258.234394 C251.53238,252.947893 255.817936,248.662338 261.104437,248.662338 Z" id="矩形" fill="#D8D8D8"></path>
                    <g id="编组-91" transform="translate(0.000000, 198.077922)">
                        <g id="编组-51" transform="translate(0.000000, 0.532468)">
                            <mask id="mask-14" fill="white">
                                <use xlink:href="#path-13"></use>
                            </mask>
                            <use id="路径-87" fill="#FFC7CA" xlink:href="#path-13"></use>
                            <polygon id="路径-117" fill="#000000" mask="url(#mask-14)" points="51.5827502 14.5385724 77.7191132 51.1168831 80.8307013 46.3445183 52.4143135 13.3116883"></polygon>
                            <path d="M80.2002137,46.1957741 L80.6655094,46.4535766 L77.1345469,52.8504266 C55.6914268,91.7452872 42.5969595,116.399634 37.8560823,126.803185 L37.5618095,127.45461 L37.0765238,127.236869 L37.3713132,126.584292 C42.1711478,116.051078 55.4999595,90.9714687 77.3628466,51.3348475 L80.2002137,46.1957741 Z" id="路径-104" fill="#000000" fill-rule="nonzero" mask="url(#mask-14)"></path>
                        </g>
                        <path d="M130.49442,1.17033789 C134.706828,-0.366595713 138.487647,-0.123773077 139.97196,2.84775994 C141.640106,5.37037342 141.193222,8.03289413 138.675968,10.7733669 L138.590087,10.8644675 L138.622369,10.8616495 C141.309548,10.624314 143.819134,11.8661535 144.652205,14.3988613 L144.699264,14.5493316 C145.353535,16.753638 144.850351,18.7324836 143.203477,20.4500266 L143.06744,20.5887136 L143.008913,20.6328058 L141.01554,21.7406494 L141.149781,21.7197359 C142.84792,21.4656524 144.358864,21.8610155 145.492686,23.1973583 L145.591746,23.3177203 C146.786423,25.3343089 146.693329,27.2202099 145.310442,28.9155785 L145.204307,29.042373 L145.145985,29.0930722 L141.395231,31.4954545 L141.505503,31.4852052 C143.225941,31.3369384 144.593414,31.865812 145.497553,33.1186491 L145.5836,33.242153 C147.224722,35.6820511 146.897814,38.1406743 143.228278,41.4730642 L143.056537,41.6274904 L142.703145,41.2296042 C146.338102,37.9927929 146.657747,35.7923139 145.142525,33.5395952 C144.234553,32.1896901 142.748337,31.7359805 140.763833,32.1289994 L140.624149,32.1578442 L133.625704,36.4737749 C133.340026,36.6499253 133.072367,36.2517252 133.30612,36.0501907 L133.342977,36.0228211 L144.825218,28.6659221 L144.906366,28.5692012 C146.103822,27.0952137 146.210085,25.5047313 145.241253,23.7691587 L145.155578,23.6200393 C143.907657,22.0608382 142.051001,21.872356 139.929018,22.5592675 C139.534269,22.6870527 138.806304,23.0249989 137.748108,23.5718031 L137.347315,23.78 L130.714525,27.4680067 C130.420602,27.631416 130.17133,27.2199222 130.415109,27.0297748 L130.45638,27.0024848 L131.87039,26.1952351 C133.546501,25.2427698 134.966345,24.4528622 136.131944,23.8246288 L137.087806,23.3151558 L142.715112,20.1869091 L142.828214,20.0725638 C144.293633,18.5399413 144.759911,16.8193026 144.239543,14.8781035 L144.189519,14.7010224 C143.409336,12.0725042 140.626249,10.9168011 137.798819,11.5238 L137.64139,11.5588052 L124.411839,18.5580008 C124.113302,18.7159304 123.873102,18.2959416 124.123243,18.1123051 L124.16236,18.0877671 L137.13846,11.147882 L137.191391,11.1265253 L137.35049,11.0832529 L137.450481,11.0577532 L137.888136,10.8261299 L138.005785,10.7077496 C140.567645,8.07505339 141.087267,5.61776539 139.597367,3.24566943 L139.512527,3.1139734 C138.175575,0.441333913 134.663868,0.215794948 130.676484,1.67062646 L130.549905,1.71911921 C128.320877,2.60782772 118.175913,8.23261661 100.193275,18.5535806 C100.029651,18.6474908 99.8288779,18.5455327 99.7989579,18.368385 L99.7951577,18.3226014 L99.7951577,8.8892846 L100.326939,8.8892846 L100.326854,17.8626883 L106.093022,14.5622983 C120.459071,6.35931495 128.553759,1.91245741 130.432259,1.19359365 L130.49442,1.17033789 Z" id="路径" fill="#000000" fill-rule="nonzero"></path>
                    </g>
                    <g id="编组-90" transform="translate(223.347991, 197.545455)">
                        <g id="编组-50" transform="translate(0.531781, 0.532468)">
                            <mask id="mask-16" fill="white">
                                <use xlink:href="#path-15"></use>
                            </mask>
                            <use id="路径-88" fill="#FFC7CA" xlink:href="#path-15"></use>
                            <polygon id="路径-116" fill="#000000" mask="url(#mask-16)" points="75.7246482 51.9653635 98.911253 13.614243 98.1938948 12.2467532 72.3222065 46.9481101"></polygon>
                            <polygon id="路径-103" fill="#000000" fill-rule="nonzero" mask="url(#mask-16)" points="73.0764255 47.7762224 112.428214 107.945054 111.983338 108.236765 72.6315492 48.0679335"></polygon>
                        </g>
                        <path d="M5.691669,22.0441163 C1.52202996,22.735125 0.0393083266,24.9963549 1.1549277,28.9524656 L1.18427613,29.0540909 L12.8784493,39.1471639 C13.1263297,39.3611086 12.8469955,39.7321896 12.5827092,39.586116 L12.5451149,39.5616575 L11.9252555,39.0982098 C5.71666436,34.4877509 3.38979163,33.7650477 1.64082877,36.2756896 C0.190257228,38.1275443 1.2058244,40.7567717 4.40978137,44.1277828 C6.79188013,46.6340842 10.0885788,49.299376 14.8535905,52.7297192 L15.8725476,53.4590755 L15.5644016,53.8930368 L14.8768634,53.4018155 C9.90605086,49.8371401 6.49099386,47.0898897 4.02456208,44.4948582 C0.657532842,40.9522722 -0.450731295,38.0830593 1.21351243,35.9591032 C2.32841246,34.3582073 3.78146292,33.9718926 5.75779833,34.6696233 C6.48104697,34.9249609 7.26402501,35.3101463 8.19993583,35.8759665 L8.45531678,36.0326104 L0.777410509,29.4057769 C0.751734586,29.3836161 0.730648309,29.3568506 0.715141763,29.327012 L0.696190504,29.2801407 C-0.58904586,24.9608913 1.01820363,22.3421293 5.42884053,21.5492493 L5.58954935,21.5212727 L4.28805787,20.5161943 L4.2412644,20.4697209 C2.45553809,18.1905214 2.45553809,15.8854479 4.27273749,13.6016575 C5.82931473,12.2010188 7.20560508,11.8320287 8.84080882,12.1834783 L8.92966537,12.2036234 L8.82701073,12.1350641 C4.95155917,8.80987524 4.45078343,5.43721319 7.37483478,2.13779747 L7.49692944,2.00224659 C9.71317045,-0.26565245 12.8206001,-0.304091417 16.7711334,1.85220578 L16.9762229,1.96569547 L41.9580471,18.3413766 L42.1341926,18.4024418 C46.4667785,19.8852911 48.5411002,19.4313558 48.6039,17.1444895 L48.6053714,17.0359506 L48.6053714,7.43081841 L49.1371523,7.43081841 L49.1371523,17.0359506 C49.1371523,19.9256867 46.6561932,20.5117456 41.9537606,18.9033444 L41.7537449,18.8340781 L41.6959642,18.8055447 L16.7006846,2.42073949 C12.8570286,0.26570492 9.93792145,0.26570492 7.88300788,2.36831213 C5.08634142,5.42417812 5.44921868,8.45733561 8.99130552,11.5756166 L9.14731264,11.711248 L10.8270597,12.8303377 L10.841828,12.8360499 L10.895298,12.8635546 L22.1189734,20.3532986 C22.4011547,20.5416028 22.1438848,20.9550793 21.8626731,20.8185871 L21.8242261,20.7964929 L10.5893537,13.3095584 L10.0067989,13.0922343 C9.61488114,12.9488501 9.37595843,12.8708228 9.10060756,12.7956133 L9.02446638,12.7751245 C7.41614565,12.3484886 6.1489029,12.6293315 4.65863064,13.9653128 C3.06096102,15.9784563 3.02622908,17.9668989 4.55539866,20.0051103 L4.64032039,20.1155584 L15.6243261,28.5999154 C15.8895135,28.8047478 15.6134749,29.1966591 15.3417682,29.0490338 L15.3047954,29.0254906 L5.76929131,22.0313766 L5.691669,22.0441163 Z" id="形状" fill="#000000" fill-rule="nonzero"></path>
                    </g>
                    <ellipse id="椭圆形" fill="#FFFFFF" cx="162.459074" cy="79.0714286" rx="2.92479511" ry="5.05844156"></ellipse>
                    <path d="M162.459074,84.1298701 C163.780699,84.1298701 164.943194,82.1035225 164.943194,79.6038961 C164.943194,77.1042697 163.780699,75.0779221 162.459074,75.0779221 C161.137449,75.0779221 160.005292,77.1042697 160.005292,79.6038961 C160.005292,82.1035225 161.137449,84.1298701 162.459074,84.1298701 Z" id="椭圆形" fill="#000000"></path>
                    <ellipse id="椭圆形" fill="#FFFFFF" cx="184.793873" cy="79.0714286" rx="2.92479511" ry="5.05844156"></ellipse>
                    <path d="M184.793873,84.1298701 C186.115498,84.1298701 187.277993,82.1035225 187.277993,79.6038961 C187.277993,77.1042697 186.115498,75.0779221 184.793873,75.0779221 C183.472248,75.0779221 182.340091,77.1042697 182.340091,79.6038961 C182.340091,82.1035225 183.472248,84.1298701 184.793873,84.1298701 Z" id="椭圆形" fill="#000000"></path>
                    <path d="M169.229888,103.489935 C169.403626,103.281551 169.702731,103.239763 169.925048,103.382795 L169.978911,103.422414 C169.998351,103.438664 170.041274,103.473139 170.106431,103.523232 C170.218132,103.609109 170.349623,103.705444 170.499645,103.809635 C170.930988,104.109205 171.421758,104.409422 171.961636,104.689591 C174.629847,106.074255 177.376307,106.45328 179.919931,105.243542 C180.474589,104.979748 181.014178,104.641061 181.537525,104.223182 C181.767148,104.039834 182.101735,104.077587 182.284847,104.307507 C182.467958,104.537426 182.430254,104.872445 182.200631,105.055793 C181.613982,105.524218 181.005091,105.906403 180.376246,106.20548 C177.481081,107.582409 174.407254,107.158207 171.472239,105.635084 C170.889874,105.332867 170.360605,105.009099 169.893487,104.684683 C169.610359,104.48805 169.408524,104.332877 169.297322,104.239924 C169.071864,104.051466 169.041673,103.715684 169.229888,103.489935 Z" id="路径-90" fill="#000000" fill-rule="nonzero" transform="translate(175.753601, 105.169020) rotate(-6.000000) translate(-175.753601, -105.169020) "></path>
                    <path d="M175.150481,83.9696079 C175.238877,83.6891703 175.537583,83.5335825 175.817659,83.6220929 C176.097735,83.7106033 176.253122,84.0096947 176.164726,84.2901323 L176.023071,84.7471152 C174.377282,90.1501445 174.674736,92.6493506 176.551269,92.6493506 C176.844963,92.6493506 177.08305,92.8877445 177.08305,93.1818182 C177.08305,93.4758919 176.844963,93.7142857 176.551269,93.7142857 C173.484043,93.7142857 173.148901,90.319633 175.150481,83.9696079 Z" id="路径-91" fill="#000000" fill-rule="nonzero" transform="translate(175.488568, 88.655773) rotate(-10.000000) translate(-175.488568, -88.655773) "></path>
                    <mask id="mask-18" fill="white">
                        <use xlink:href="#path-17"></use>
                    </mask>
                    <use id="路径-92" fill="#FFFFFF" xlink:href="#path-17"></use>
                    <polygon id="路径-108" fill="#95BDEC" mask="url(#mask-18)" points="176.159076 693.272727 62.756251 693.272727 63.3039967 696.131273 174.872788 696.21653"></polygon>
                    <path d="M164.869192,660.973433 L156.875374,693.272727 L176.385078,693.272727 C180.358423,680.565267 176.974826,669.98486 166.234289,661.531507 L164.869192,660.973433 Z" id="路径-314" fill="#FFCE66"></path>
                    <path d="M162.092176,648.846716 C158.747323,649.264684 157.497065,650.523946 157.454947,653.49428 L157.453952,653.576208 L157.491884,653.514969 C154.240145,658.927915 148.289141,661.975214 139.609114,662.650033 C130.898554,663.327226 121.222362,661.238486 110.580041,656.378649 L110.485101,656.355093 C72.2550059,654.13566 56.3059389,667.525532 62.8480018,696.4423 L62.8948906,696.649554 L175.202587,696.733897 L175.272448,696.574548 L175.460875,696.138884 C181.520912,681.932393 178.246485,670.197272 165.660185,661.009864 L165.389719,660.814571 L165.408946,660.415362 C165.763673,652.434344 164.781573,648.539928 162.27016,648.82549 L162.092176,648.846716 Z M164.844523,661.078064 L165.345061,661.438773 C177.733864,670.480744 180.934965,681.952976 174.970954,695.93181 L174.854356,696.201299 L63.3207507,696.117169 L63.1796929,695.473664 C57.2890698,667.825384 72.6044497,654.968429 109.323579,656.825231 L110.405698,656.883896 L110.35938,656.863112 C121.078498,661.758018 130.842297,663.86567 139.650279,663.180903 C148.374009,662.502686 154.438678,659.446389 157.815672,654.005441 L157.985621,653.7261 L157.985621,653.652198 C157.985621,650.799046 159.049013,649.727643 162.330163,649.354557 C164.301758,649.130375 165.214932,652.777393 164.877792,660.388698 L164.844523,661.078064 Z" id="路径-92" fill="#000000" fill-rule="nonzero"></path>
                    <path d="M289.679884,656.620881 C251.607713,654.410615 235.820251,667.664815 242.317495,696.38348 L354.239157,696.467532 C360.566499,682.035432 357.262658,670.194946 344.327635,660.946075 C344.742353,652.781323 343.803252,648.829306 341.510334,649.090024 C338.070957,649.4811 336.929904,650.683516 336.929904,653.652198 C333.629153,659.146732 327.599141,662.234488 318.83987,662.915468 C310.080599,663.596448 300.360603,661.498252 289.679884,656.620881 Z" id="路径-92" fill="#FFFFFF" transform="translate(299.126773, 672.772727) scale(-1, 1) translate(-299.126773, -672.772727) "></path>
                    <polygon id="路径-107" fill="#95BDEC" points="243.023885 693.272727 356.825004 693.272727 356.371499 696.467532 244.007686 696.467532"></polygon>
                    <path d="M254.100583,660.839781 L262.167998,693.272727 L242.492104,693.272727 C238.253288,680.756788 241.532603,670.385247 252.330051,662.158105 L252.760012,661.753206 L254.100583,660.839781 Z" id="路径-315" fill="#FFCE66"></path>
                    <path d="M341.302349,648.846716 C337.957496,649.264684 336.707238,650.523946 336.66512,653.49428 L336.664125,653.576208 L336.702057,653.514969 C333.450318,658.927915 327.499314,661.975214 318.819287,662.650033 C310.108727,663.327226 300.432535,661.238486 289.790214,656.378649 L289.695274,656.355093 C251.465179,654.13566 235.516112,667.525532 242.058175,696.4423 L242.105064,696.649554 L354.41276,696.733897 L354.482622,696.574548 L354.671049,696.138884 C360.731086,681.932393 357.456658,670.197272 344.870358,661.009864 L344.599892,660.814571 L344.619119,660.415362 C344.973846,652.434344 343.991747,648.539928 341.480333,648.82549 L341.302349,648.846716 Z M344.054697,661.078064 L344.555234,661.438773 C356.944038,670.480744 360.145138,681.952976 354.181128,695.93181 L354.064529,696.201299 L242.530924,696.117169 L242.389866,695.473664 C236.499243,667.825384 251.814623,654.968429 288.533752,656.825231 L289.615871,656.883896 L289.569553,656.863112 C300.288671,661.758018 310.05247,663.86567 318.860453,663.180903 C327.584182,662.502686 333.648851,659.446389 337.025845,654.005441 L337.195795,653.7261 L337.195795,653.652198 C337.195795,650.799046 338.259187,649.727643 341.540336,649.354557 C343.511932,649.130375 344.425105,652.777393 344.087965,660.388698 L344.054697,661.078064 Z" id="路径-92" fill="#000000" fill-rule="nonzero" transform="translate(299.126425, 672.772376) scale(-1, 1) translate(-299.126425, -672.772376) "></path>
                    <path d="M161.961592,1.44025014 L162.390845,1.75455505 C158.103078,7.62558037 158.2304,13.4631239 162.778426,19.3379651 L162.933404,19.5360077 L162.516525,19.8665897 C157.722622,13.8056368 157.487643,7.70657229 161.817206,1.64022758 L161.961592,1.44025014 Z" id="路径-110" fill="#2F1B16" fill-rule="nonzero"></path>
                    <path d="M155.545922,12.2467532 C155.545922,15.1631277 157.866719,17.5363509 162.572995,19.3583514 L162.818551,19.4521012 L162.631378,19.9504962 C157.658792,18.0782137 155.098804,15.56585 155.016206,12.4053199 L155.014141,12.2467532 L155.545922,12.2467532 Z" id="路径-111" fill="#2F1B16" fill-rule="nonzero"></path>
                    <path d="M216.711523,47.9971654 L217.221716,47.8469905 L217.554347,48.9676999 C222.999852,67.1150022 229.059111,77.5389835 235.677213,80.2371292 C242.056726,82.8380042 249.910756,89.7013473 254.528015,97.8144934 C260.57399,108.438087 261.098237,120.389516 254.525647,132.864926 L254.324304,133.243128 L253.856111,132.990638 C260.550428,120.545262 260.084839,108.654057 254.065984,98.0781181 C249.567918,90.1744085 241.949881,83.4650146 235.72492,80.833369 L235.476676,80.7302848 C228.660774,77.9514981 222.535782,67.4178152 217.04679,49.126721 L216.711523,47.9971654 Z" id="路径-113" fill="#2F1B16" fill-rule="nonzero"></path>
                    <path d="M81.4271319,653.800674 C81.6841829,653.800674 81.8979718,653.894854 81.9423069,654.019051 L81.950743,654.066907 L81.950743,672.772727 C81.950743,672.919764 81.7163143,673.038961 81.4271319,673.038961 C81.1700808,673.038961 80.956292,672.944781 80.9119568,672.820583 L80.9035208,672.772727 L80.9035208,654.066907 C80.9035208,653.91987 81.1379494,653.800674 81.4271319,653.800674 Z" id="路径-313" fill="#4A82ED" fill-rule="nonzero"></path>
                    <path d="M86.7449412,653.800674 C87.0019922,653.800674 87.2157811,653.894854 87.2601162,654.019051 L87.2685523,654.066907 L87.2685523,672.772727 C87.2685523,672.919764 87.0341236,673.038961 86.7449412,673.038961 C86.4878901,673.038961 86.2741013,672.944781 86.2297661,672.820583 L86.2213301,672.772727 L86.2213301,654.066907 C86.2213301,653.91987 86.4557587,653.800674 86.7449412,653.800674 Z" id="路径-313" fill="#4A82ED" fill-rule="nonzero"></path>
                    <path d="M92.0627505,653.800674 C92.3198015,653.800674 92.5335904,653.894854 92.5779255,654.019051 L92.5863616,654.066907 L92.5863616,672.772727 C92.5863616,672.919764 92.3519329,673.038961 92.0627505,673.038961 C91.8056994,673.038961 91.5919106,672.944781 91.5475754,672.820583 L91.5391394,672.772727 L91.5391394,654.066907 C91.5391394,653.91987 91.773568,653.800674 92.0627505,653.800674 Z" id="路径-313" fill="#4A82ED" fill-rule="nonzero"></path>
                    <path d="M325.441759,652.538961 C325.69881,652.538961 325.912599,652.633141 325.956934,652.757339 L325.96537,652.805195 L325.96537,671.511015 C325.96537,671.658052 325.730942,671.777249 325.441759,671.777249 C325.184708,671.777249 324.970919,671.683068 324.926584,671.558871 L324.918148,671.511015 L324.918148,652.805195 C324.918148,652.658158 325.152577,652.538961 325.441759,652.538961 Z" id="路径-313" fill="#4A82ED" fill-rule="nonzero"></path>
                    <path d="M330.759569,652.538961 C331.01662,652.538961 331.230408,652.633141 331.274744,652.757339 L331.28318,652.805195 L331.28318,671.511015 C331.28318,671.658052 331.048751,671.777249 330.759569,671.777249 C330.502518,671.777249 330.288729,671.683068 330.244394,671.558871 L330.235957,671.511015 L330.235957,652.805195 C330.235957,652.658158 330.470386,652.538961 330.759569,652.538961 Z" id="路径-313" fill="#4A82ED" fill-rule="nonzero"></path>
                    <path d="M336.077378,652.538961 C336.334429,652.538961 336.548218,652.633141 336.592553,652.757339 L336.600989,652.805195 L336.600989,671.511015 C336.600989,671.658052 336.36656,671.777249 336.077378,671.777249 C335.820327,671.777249 335.606538,671.683068 335.562203,671.558871 L335.553767,671.511015 L335.553767,652.805195 C335.553767,652.658158 335.788195,652.538961 336.077378,652.538961 Z" id="路径-313" fill="#4A82ED" fill-rule="nonzero"></path>
                    <path d="M145.111516,175.694546 L145.419859,178.338921 C145.436888,178.484966 145.568934,178.589536 145.71479,178.572484 C145.860647,178.555433 145.965082,178.423217 145.948052,178.277173 L145.639709,175.632797 C145.622679,175.486753 145.490634,175.382183 145.344778,175.399234 C145.198921,175.416285 145.094486,175.548501 145.111516,175.694546 Z M145.728203,180.983296 L146.036546,183.627671 C146.053576,183.773716 146.185621,183.878286 146.331477,183.861235 C146.477334,183.844184 146.581769,183.711968 146.564739,183.565923 L146.256396,180.921548 C146.239366,180.775503 146.107321,180.670933 145.961465,180.687985 C145.815608,180.705036 145.711173,180.837251 145.728203,180.983296 Z M146.34489,186.272047 L146.653234,188.916422 C146.670263,189.062467 146.802308,189.167037 146.948164,189.149985 C147.094021,189.132934 147.198456,189.000718 147.181427,188.854674 L146.873083,186.210298 C146.856054,186.064254 146.724009,185.959684 146.578152,185.976735 C146.432296,185.993786 146.327861,186.126002 146.34489,186.272047 Z M146.961577,191.560797 L147.269921,194.205172 C147.28695,194.351217 147.418995,194.455787 147.564852,194.438736 C147.710708,194.421684 147.815143,194.289469 147.798114,194.143424 L147.48977,191.499049 C147.472741,191.353004 147.340696,191.248434 147.194839,191.265485 C147.048983,191.282537 146.944548,191.414752 146.961577,191.560797 Z M147.578264,196.849548 L147.886608,199.493923 C147.903637,199.639968 148.035682,199.744538 148.181539,199.727486 C148.327395,199.710435 148.43183,199.578219 148.414801,199.432175 L148.106457,196.787799 C148.089428,196.641755 147.957383,196.537185 147.811526,196.554236 C147.66567,196.571287 147.561235,196.703503 147.578264,196.849548 Z M148.194951,202.138298 L148.503295,204.782673 C148.520324,204.928718 148.652369,205.033288 148.798226,205.016237 C148.944082,204.999185 149.048517,204.86697 149.031488,204.720925 L148.723145,202.07655 C148.706115,201.930505 148.57407,201.825935 148.428214,201.842986 C148.282357,201.860038 148.177922,201.992253 148.194951,202.138298 Z M151.263912,205.200715 L153.922816,205.200715 C154.069663,205.200715 154.188707,205.081518 154.188707,204.934482 C154.188707,204.787445 154.069663,204.668248 153.922816,204.668248 L151.263912,204.668248 C151.117064,204.668248 150.998021,204.787445 150.998021,204.934482 C150.998021,205.081518 151.117064,205.200715 151.263912,205.200715 Z M156.581721,205.200715 L159.240626,205.200715 C159.387473,205.200715 159.506516,205.081518 159.506516,204.934482 C159.506516,204.787445 159.387473,204.668248 159.240626,204.668248 L156.581721,204.668248 C156.434874,204.668248 156.31583,204.787445 156.31583,204.934482 C156.31583,205.081518 156.434874,205.200715 156.581721,205.200715 Z M161.89953,205.200715 L164.558435,205.200715 C164.705282,205.200715 164.824325,205.081518 164.824325,204.934482 C164.824325,204.787445 164.705282,204.668248 164.558435,204.668248 L161.89953,204.668248 C161.752683,204.668248 161.63364,204.787445 161.63364,204.934482 C161.63364,205.081518 161.752683,205.200715 161.89953,205.200715 Z M167.217339,205.200715 L169.876244,205.200715 C170.023091,205.200715 170.142135,205.081518 170.142135,204.934482 C170.142135,204.787445 170.023091,204.668248 169.876244,204.668248 L167.217339,204.668248 C167.070492,204.668248 166.951449,204.787445 166.951449,204.934482 C166.951449,205.081518 167.070492,205.200715 167.217339,205.200715 Z M172.535149,205.200715 L175.194053,205.200715 C175.340901,205.200715 175.459944,205.081518 175.459944,204.934482 C175.459944,204.787445 175.340901,204.668248 175.194053,204.668248 L172.535149,204.668248 C172.388302,204.668248 172.269258,204.787445 172.269258,204.934482 C172.269258,205.081518 172.388302,205.200715 172.535149,205.200715 Z M177.852958,205.200715 L180.511863,205.200715 C180.65871,205.200715 180.777753,205.081518 180.777753,204.934482 C180.777753,204.787445 180.65871,204.668248 180.511863,204.668248 L177.852958,204.668248 C177.706111,204.668248 177.587068,204.787445 177.587068,204.934482 C177.587068,205.081518 177.706111,205.200715 177.852958,205.200715 Z M183.170767,205.200715 L185.829672,205.200715 C185.976519,205.200715 186.095562,205.081518 186.095562,204.934482 C186.095562,204.787445 185.976519,204.668248 185.829672,204.668248 L183.170767,204.668248 C183.02392,204.668248 182.904877,204.787445 182.904877,204.934482 C182.904877,205.081518 183.02392,205.200715 183.170767,205.200715 Z M188.488577,205.200715 L191.147481,205.200715 C191.294329,205.200715 191.413372,205.081518 191.413372,204.934482 C191.413372,204.787445 191.294329,204.668248 191.147481,204.668248 L188.488577,204.668248 C188.341729,204.668248 188.222686,204.787445 188.222686,204.934482 C188.222686,205.081518 188.341729,205.200715 188.488577,205.200715 Z M193.806386,205.200715 L196.465291,205.200715 C196.612138,205.200715 196.731181,205.081518 196.731181,204.934482 C196.731181,204.787445 196.612138,204.668248 196.465291,204.668248 L193.806386,204.668248 C193.659539,204.668248 193.540496,204.787445 193.540496,204.934482 C193.540496,205.081518 193.659539,205.200715 193.806386,205.200715 Z M199.124195,205.200715 L201.7831,205.200715 C201.929947,205.200715 202.04899,205.081518 202.04899,204.934482 C202.04899,204.787445 201.929947,204.668248 201.7831,204.668248 L199.124195,204.668248 C198.977348,204.668248 198.858305,204.787445 198.858305,204.934482 C198.858305,205.081518 198.977348,205.200715 199.124195,205.200715 Z M204.442005,205.200715 L207.100909,205.200715 C207.247756,205.200715 207.3668,205.081518 207.3668,204.934482 C207.3668,204.787445 207.247756,204.668248 207.100909,204.668248 L204.442005,204.668248 C204.295157,204.668248 204.176114,204.787445 204.176114,204.934482 C204.176114,205.081518 204.295157,205.200715 204.442005,205.200715 Z M209.759814,205.200715 L212.418719,205.200715 C212.565566,205.200715 212.684609,205.081518 212.684609,204.934482 C212.684609,204.787445 212.565566,204.668248 212.418719,204.668248 L209.759814,204.668248 C209.612967,204.668248 209.493923,204.787445 209.493923,204.934482 C209.493923,205.081518 209.612967,205.200715 209.759814,205.200715 Z M215.077623,205.200715 L217.736528,205.200715 C217.883375,205.200715 218.002418,205.081518 218.002418,204.934482 C218.002418,204.787445 217.883375,204.668248 217.736528,204.668248 L215.077623,204.668248 C214.930776,204.668248 214.811733,204.787445 214.811733,204.934482 C214.811733,205.081518 214.930776,205.200715 215.077623,205.200715 Z M220.395432,205.200715 L223.054337,205.200715 C223.201184,205.200715 223.320228,205.081518 223.320228,204.934482 C223.320228,204.787445 223.201184,204.668248 223.054337,204.668248 L220.395432,204.668248 C220.248585,204.668248 220.129542,204.787445 220.129542,204.934482 C220.129542,205.081518 220.248585,205.200715 220.395432,205.200715 Z M225.713242,205.200715 L226.971436,205.200715 C227.104395,205.200715 227.216915,205.102375 227.234886,204.970466 L227.42421,203.580818 C227.444059,203.43513 227.342198,203.300916 227.196698,203.281042 C227.051199,203.261168 226.917158,203.36316 226.897309,203.508848 L226.707985,204.898497 L226.971436,204.668248 L225.713242,204.668248 C225.566395,204.668248 225.447351,204.787445 225.447351,204.934482 C225.447351,205.081518 225.566395,205.200715 225.713242,205.200715 Z M227.783596,200.942911 L228.142981,198.305005 C228.16283,198.159317 228.060969,198.025103 227.915469,198.005229 C227.76997,197.985355 227.635929,198.087347 227.61608,198.233035 L227.256695,200.870941 C227.236847,201.016629 227.338707,201.150843 227.484207,201.170717 C227.629707,201.190591 227.763748,201.088599 227.783596,200.942911 Z M228.502367,195.667098 L228.861752,193.029192 C228.881601,192.883505 228.77974,192.74929 228.63424,192.729416 C228.488741,192.709543 228.3547,192.811535 228.334851,192.957222 L227.975466,195.595129 C227.955618,195.740816 228.057478,195.87503 228.202978,195.894904 C228.348478,195.914778 228.482519,195.812786 228.502367,195.667098 Z M229.221138,190.391286 L229.580523,187.753379 C229.600372,187.607692 229.498511,187.473478 229.353011,187.453604 C229.207512,187.43373 229.073471,187.535722 229.053622,187.681409 L228.694237,190.319316 C228.674389,190.465003 228.776249,190.599217 228.921749,190.619091 C229.067249,190.638965 229.20129,190.536973 229.221138,190.391286 Z M229.939909,185.115473 L230.299294,182.477566 C230.319143,182.331879 230.217282,182.197665 230.071782,182.177791 C229.926283,182.157917 229.792242,182.259909 229.772393,182.405597 L229.413008,185.043503 C229.39316,185.189191 229.49502,185.323405 229.64052,185.343279 C229.78602,185.363153 229.920061,185.26116 229.939909,185.115473 Z M230.65868,179.83966 L231.018065,177.201754 C231.037914,177.056066 230.936053,176.921852 230.790553,176.901978 C230.645054,176.882104 230.511013,176.984096 230.491164,177.129784 L230.131779,179.76769 C230.111931,179.913378 230.213791,180.047592 230.359291,180.067466 C230.504791,180.08734 230.638832,179.985348 230.65868,179.83966 Z" id="路径-496" fill="#FFFFFF" fill-rule="nonzero"></path>
                    <ellipse id="椭圆形" fill="#5382B9" cx="148.366879" cy="205" rx="3.19068558" ry="3.19480519"></ellipse>
                    <ellipse id="椭圆形" fill="#5382B9" cx="225.475114" cy="205" rx="3.19068558" ry="3.19480519"></ellipse>
                    <path d="M155.323489,69.6289362 C158.001732,67.026669 161.709608,66.5758322 166.317158,68.2126629 C166.732343,68.3601572 166.949503,68.8167334 166.802199,69.2324544 C166.654895,69.6481754 166.198908,69.8656161 165.783723,69.7181218 C161.703057,68.2684666 158.629964,68.6421208 156.434483,70.7753211 C156.118326,71.0825097 155.613325,71.0749082 155.306533,70.7583428 C154.99974,70.4417773 155.007332,69.9361248 155.323489,69.6289362 Z" id="路径-386" fill="#000000" fill-rule="nonzero"></path>
                    <path d="M179.186457,69.2003491 C181.8647,66.5980819 185.572577,66.1472451 190.180127,67.7840758 C190.595311,67.9315701 190.812472,68.3881463 190.665168,68.8038673 C190.517863,69.2195883 190.061876,69.437029 189.646691,69.2895347 C185.566026,67.8398795 182.492932,68.2135337 180.297451,70.346734 C179.981294,70.6539226 179.476293,70.6463211 179.169501,70.3297557 C178.862708,70.0131902 178.8703,69.5075377 179.186457,69.2003491 Z" id="路径-386" fill="#000000" fill-rule="nonzero" transform="translate(184.827790, 68.698806) rotate(6.000000) translate(-184.827790, -68.698806) "></path>
                </g>
            </g>
        </g>
    </g>
</svg>