<?xml version="1.0" encoding="UTF-8"?>
<svg width="427px" height="789px" viewBox="0 0 427 789" version="1.1" xmlns="http://www.w3.org/2000/svg" xmlns:xlink="http://www.w3.org/1999/xlink">
    <!-- Generator: Sketch 60.1 (88133) - https://sketch.com -->
    <title>N3</title>
    <desc>Created with Sketch.</desc>
    <defs>
        <path d="M16.0193807,0 L0,214.720835 C31.2178813,223.226875 50.2225687,221.890317 57.0140621,210.711162 C63.8055555,199.532006 74.6177324,129.294953 89.4505929,0 L16.0193807,0 Z" id="path-1"></path>
        <path d="M0,0 L19.7554743,205.05759 C41.3859647,214.027724 59.7419572,214.027724 74.8234519,205.05759 L74.7895497,1.07652731 L0,0 Z" id="path-3"></path>
        <polygon id="path-5" points="209.097724 1 243.472991 217.527036 136.438061 220.107551 136.438061 202.508076 125.624143 148.659104 114.022245 220.107551 1 217.527036 16.4331275 5.62463884"></polygon>
        <path d="M0,31.4716153 L29.6114621,82.12871 C36.4342053,92.7732701 42.6657912,99.8335307 48.3062199,103.309492 C53.9466485,106.785453 70.6756113,120.241698 98.4931081,143.678225 C104.272262,148.432157 108.318142,153.155205 110.630749,157.847372 C112.943357,162.539538 122.422366,174.077697 139.067779,192.461849 C140.250498,193.760919 142.277385,194.085686 145.14844,193.436152 C149.455023,192.461849 147.670713,186.533556 145.14844,183.781688 C143.466925,181.947109 138.515464,175.835783 130.294059,165.44771 L153.163781,191.718006 C154.770068,193.041976 156.722964,192.897755 159.02247,191.285343 C162.471728,188.866725 161.319871,184.43485 159.02247,181.293461 C157.490869,179.199201 150.839305,171.803851 139.067779,159.10741 L164.690098,187.106063 C166.868169,188.426843 169.061701,188.202975 171.270697,186.43446 C174.584191,183.781688 174.304687,178.752755 171.922041,175.933438 C170.33361,174.053893 162.669194,165.900971 148.928792,151.474673 L172.92526,175.933438 C175.402738,177.589557 177.441203,177.238033 179.040655,174.878867 C181.439834,171.340118 178.939585,168.086078 177.051998,165.862351 C175.793606,164.379866 166.870799,154.655408 150.283575,136.688978 L164.690098,150.719812 C167.188641,151.808642 169.109013,151.325297 170.451214,149.269777 C172.464516,146.186498 171.013341,143.991817 168.917686,141.380286 C166.822031,138.768755 161.005793,130.606364 156.227088,126.812591 C151.448382,123.018817 145.202594,119.174932 142.475872,119.174932 C139.749149,119.174932 132.714137,115.003568 127.51212,111.532805 C122.310104,108.062041 108.952278,94.3482223 94.9863692,79.5695801 C85.675763,69.717152 76.7456364,60.6048379 68.1959893,52.2326378 L41.9588483,0 L0,31.4716153 Z" id="path-7"></path>
        <path d="M0,21.1263311 L29.2647779,4.6706036 C33.7888742,1.73144506 37.482819,0.261865787 40.3466123,0.261865787 C44.6423022,0.261865787 60.7197114,5.23447353 67.6339569,8.0233853 C72.2434539,9.88265982 75.390062,12.4755566 77.0737813,15.8020758 L63.3645498,12.9165295 L51.923747,21.1263311 L40.3466123,29.3856467 L0,21.1263311 Z" id="path-9"></path>
        <path d="M100.420949,31.5424752 C151.842734,31.5424752 193.528327,73.2280683 193.528327,124.649853 L193.528327,205.674298 C193.528327,240.468237 165.322266,268.674298 130.528327,268.674298 L70.3135705,268.674298 C35.5196312,268.674298 7.31357049,240.468237 7.31357049,205.674298 L7.31357049,124.649853 C7.31357049,73.2280683 48.9991636,31.5424752 100.420949,31.5424752 Z" id="path-11"></path>
        <path d="M89.7318841,42.2443864 C135.250262,42.2443864 172.150198,79.1443223 172.150198,124.6627 L172.150198,246.674298 C172.150198,258.824562 162.300462,268.674298 150.150198,268.674298 L89.3135705,268.674298 C44.026221,268.674298 7.31357049,231.961647 7.31357049,186.674298 L7.31357049,124.6627 C7.31357049,79.1443223 44.2135064,42.2443864 89.7318841,42.2443864 Z" id="path-13"></path>
    </defs>
    <g id="页面-1" stroke="none" stroke-width="1" fill="none" fill-rule="evenodd">
        <g id="画板" transform="translate(-3221.000000, -504.000000)">
            <g id="男" transform="translate(2211.000000, 497.000000)">
                <g id="N3" transform="translate(1010.000000, 7.000000)">
                    <path d="M150.381547,90.788185 C156.452833,86.2812111 160.00906,81.5498506 161.05023,76.5941035 C159.304219,65.4319314 160.55888,54.7149448 166.824777,55.2073396 C171.002042,55.5356028 172.924263,58.2315032 172.591439,63.2950406 C176.657816,58.5015498 178.426427,52.0479236 177.897273,43.9341619 C182.236262,60.748943 182.236262,75.1203064 177.897273,87.0482522 C173.558284,98.976198 166.574034,104.287514 156.944524,102.982199 C156.661288,111.85328 157.221086,119.374523 158.623917,125.54593 C160.728164,134.80304 139.515164,145.320689 130.138736,145.320689 C123.887784,145.320689 122.682564,129.371461 126.523075,97.4730047 C136.357438,97.5234322 144.310262,95.295159 150.381547,90.788185 Z" id="路径-228" fill="#FFC7CA"></path>
                    <g id="编组-102" transform="translate(95.889163, 0.000000)">
                        <path d="M32.616595,98.570235 C30.098658,98.4093305 27.6143801,97.6582076 25.1637611,96.3168665 C22.7131422,94.9755254 20.1149548,94.3048549 17.3691989,94.3048549 C8.55548644,92.0784491 4.39027125,86.881002 4.8735534,78.7125136 C5.59847661,66.4597811 9.11719275,68.1614252 6.07830154,59.7158556 C3.03941033,51.270286 7.98777549,42.0074574 14.3701567,38.8620449 C20.7525379,35.7166324 28.5428605,30.1423775 28.5428605,20.8700393 C28.5428605,11.5977012 32.3311119,-1.23846821 45.6859661,0.0962204298 C54.5892023,0.986012854 60.1027309,4.50304234 62.2265522,10.6473089 C62.394318,13.2290494 63.9404206,14.053394 66.8648598,13.1203426 C71.2515187,11.7207655 83.3399408,12.5413809 86.1615734,22.7020197 C88.0426618,29.475779 86.6526939,36.4755353 81.9916698,43.7012887 C82.2329186,55.6038349 80.5288618,63.0113693 76.8794993,65.9238918 C71.4054557,70.2926757 69.4501281,71.6581304 66.8648598,77.013107 C64.2795915,82.3680837 55.8119643,93.5238655 39.6212847,97.6565896 L35.0154723,98.2840878 L32.616595,98.570235 Z" id="路径-229" fill="#2F1B16"></path>
                        <path d="M58.983602,11.636373 C59.1314642,11.5886579 59.2899645,11.6699873 59.3376223,11.8180272 C60.8179328,16.4163315 63.1494603,17.9411609 66.436642,16.5270045 L66.5867179,16.460701 C72.4051008,13.823284 80.3792749,16.0313695 82.4098269,21.4406595 C84.5724674,27.2018265 83.5631975,35.0515255 80.0835299,38.3652708 C79.9709652,38.4724681 79.7929172,38.4680072 79.6858486,38.3553072 C79.57878,38.2426072 79.5832355,38.0643452 79.6958002,37.9571479 C82.9940493,34.8161705 83.9726519,27.20499 81.8832091,21.638818 C79.9998776,16.6217163 72.5270575,14.5046324 66.9964745,16.8951412 L66.8187516,16.9738199 C63.1067888,18.656417 60.3981747,16.9485181 58.8021658,11.9908188 C58.754508,11.8427788 58.8357398,11.6840881 58.983602,11.636373 Z" id="路径-305" fill="#FFFFFF" fill-rule="nonzero"></path>
                        <path d="M13.4072852,34.4479718 C6.64143556,38.8280243 3.05563819,42.5726901 2.51580626,47.0049474 C2.02411011,51.0419887 2.43356983,54.0994051 3.58994692,57.6153395 L3.74739098,58.081376 C3.91501046,58.5600408 4.46990348,60.128364 4.64726046,60.6786795 L4.66740843,60.7420144 C4.96983459,61.7081155 5.11716116,62.4534884 5.11716116,63.1578022 C5.11716116,63.7484089 4.93544634,64.5321555 4.55334584,65.7041295 L4.39183422,66.1847763 C4.08439114,67.0746657 3.32236002,69.2122871 3.12162185,69.8005945 C1.8746582,73.455096 1.21567912,76.3075546 1.1598294,79.1108361 C1.11283458,81.4696613 1.53126369,83.5999206 2.48791214,85.5054629 C2.55768083,85.6444347 2.50171584,85.8137203 2.36291083,85.8835729 C2.22410582,85.9534254 2.05502344,85.8973932 1.98525475,85.7584213 C0.984748142,83.7655183 0.548634826,81.5452271 0.597358944,79.0996031 C0.652572799,76.3282378 1.2779734,73.5306854 2.45607443,70.0124238 L2.65093192,69.439614 C2.9515758,68.5738034 3.76698392,66.2868063 3.95013569,65.7368529 L4.07909664,65.3413743 C4.40169146,64.3283427 4.55457882,63.6426635 4.55457882,63.1578022 C4.55457882,62.569727 4.43771249,61.9332258 4.19411896,61.1180575 L4.13057472,60.9104678 C3.96570577,60.3837935 3.24322532,58.3494914 3.17153722,58.1383675 C1.90304235,54.4026074 1.43846937,51.1970924 1.95736063,46.9367673 C2.52420745,42.2827059 6.20227779,38.4411715 13.102591,33.9744685 L13.3815646,33.7968342 C13.6502988,33.6466616 20.883084,29.1891014 22.4102525,28.0340626 L22.4661497,27.9912825 C26.1277559,25.1520848 28.4016545,20.9821203 29.2877511,15.4660597 C29.3124198,15.3124936 29.4567583,15.2080257 29.61014,15.2327241 C29.7635217,15.2574225 29.8678642,15.4019345 29.8431954,15.5555005 C28.9532581,21.0954702 26.6826756,25.3359804 23.0313591,28.2625861 L22.8106233,28.4366056 C21.3326692,29.5826064 13.3485496,34.4945626 13.6841154,34.2698678 L13.4072852,34.4479718 Z" id="路径-306" fill="#2F1B16" fill-rule="nonzero"></path>
                    </g>
                    <g id="编组-72" transform="translate(37.130435, 550.866799)">
                        <mask id="mask-2" fill="white">
                            <use xlink:href="#path-1"></use>
                        </mask>
                        <use id="路径-233" fill="#FFC7CA" xlink:href="#path-1"></use>
                        <polygon id="路径-345" fill="#FDF7DA" mask="url(#mask-2)" points="1.76568204 193.649886 1.76568204 164.348776 69.0842765 167.115356 60.9632968 200.994661 38.8628442 208.158571 7.2476436 210.171154"></polygon>
                        <polygon id="路径-238" fill="#000000" mask="url(#mask-2)" points="89.4505929 16.4301184 10.6890646 22.4612189 11.5266171 10.3857217 89.4505929 12.2635002"></polygon>
                    </g>
                    <g id="编组-73" transform="translate(176.650856, 553.683091)">
                        <mask id="mask-4" fill="white">
                            <use xlink:href="#path-3"></use>
                        </mask>
                        <use id="路径-234" fill="#FFC7CA" xlink:href="#path-3"></use>
                        <polygon id="路径-345" fill="#FDF7DA" mask="url(#mask-4)" points="15.7544303 186.366214 12.9393939 156.419904 74.5466257 161.096111 74.8234519 191.630922 48.2267292 200.194428 15.0559981 202.460163"></polygon>
                        <polygon id="路径-237" fill="#000000" mask="url(#mask-4)" points="75.9486166 9.95944427 1.22854768 23.0446189 1.01183883e-13 9.57515264 75.9486166 7.50603156"></polygon>
                    </g>
                    <g id="编组-71" transform="translate(24.878788, 344.277452)">
                        <mask id="mask-6" fill="white">
                            <use xlink:href="#path-5"></use>
                        </mask>
                        <use id="路径-232" fill="#FFFFFF" xlink:href="#path-5"></use>
                        <path d="M35.5988142,59.083629 C45.0753365,59.083629 52.7575758,66.9366018 52.7575758,76.6237348 C52.7575758,86.3108677 45.0753365,94.1638406 35.5988142,94.1638406 C26.1222919,94.1638406 18.4400527,86.3108677 18.4400527,76.6237348 C18.4400527,66.9366018 26.1222919,59.083629 35.5988142,59.083629 Z M35.5988142,63.5896969 C28.6291104,63.5896969 22.9407115,69.4045174 22.9407115,76.6237348 C22.9407115,83.8429522 28.6291104,89.6577727 35.5988142,89.6577727 C42.5685181,89.6577727 48.256917,83.8429522 48.256917,76.6237348 C48.256917,69.4045174 42.5685181,63.5896969 35.5988142,63.5896969 Z" id="椭圆形" fill="#E7F4FF" fill-rule="nonzero" mask="url(#mask-6)"></path>
                        <path d="M101.983531,191.353279 C111.460053,191.353279 119.142292,199.206252 119.142292,208.893385 C119.142292,218.580518 111.460053,226.433491 101.983531,226.433491 C92.5070086,226.433491 84.8247694,218.580518 84.8247694,208.893385 C84.8247694,199.206252 92.5070086,191.353279 101.983531,191.353279 Z M101.983531,195.859347 C95.0138271,195.859347 89.3254282,201.674168 89.3254282,208.893385 C89.3254282,216.112602 95.0138271,221.927423 101.983531,221.927423 C108.953235,221.927423 114.641634,216.112602 114.641634,208.893385 C114.641634,201.674168 108.953235,195.859347 101.983531,195.859347 Z" id="椭圆形" fill="#E7F4FF" fill-rule="nonzero" mask="url(#mask-6)"></path>
                        <path d="M217.875494,94.1638406 C227.352016,94.1638406 235.034256,102.016813 235.034256,111.703946 C235.034256,121.391079 227.352016,129.244052 217.875494,129.244052 C208.398972,129.244052 200.716733,121.391079 200.716733,111.703946 C200.716733,102.016813 208.398972,94.1638406 217.875494,94.1638406 Z M217.875494,98.6699084 C210.90579,98.6699084 205.217391,104.484729 205.217391,111.703946 C205.217391,118.923164 210.90579,124.737984 217.875494,124.737984 C224.845198,124.737984 230.533597,118.923164 230.533597,111.703946 C230.533597,104.484729 224.845198,98.6699084 217.875494,98.6699084 Z" id="椭圆形" fill="#E7F4FF" fill-rule="nonzero" mask="url(#mask-6)"></path>
                        <path d="M131.237813,24.0034174 C140.714335,24.0034174 148.396574,31.8563903 148.396574,41.5435232 C148.396574,51.2306561 140.714335,59.083629 131.237813,59.083629 C121.761291,59.083629 114.079051,51.2306561 114.079051,41.5435232 C114.079051,31.8563903 121.761291,24.0034174 131.237813,24.0034174 Z M131.237813,28.5094853 C124.268109,28.5094853 118.57971,34.3243058 118.57971,41.5435232 C118.57971,48.7627406 124.268109,54.5775611 131.237813,54.5775611 C138.207517,54.5775611 143.895916,48.7627406 143.895916,41.5435232 C143.895916,34.3243058 138.207517,28.5094853 131.237813,28.5094853 Z" id="椭圆形" fill="#E7F4FF" fill-rule="nonzero" mask="url(#mask-6)"></path>
                        <path d="M4.65678524,152.822555 C14.1333076,152.822555 21.8155468,160.675528 21.8155468,170.362661 C21.8155468,180.049794 14.1333076,187.902767 4.65678524,187.902767 C-4.81973707,187.902767 -12.5019763,180.049794 -12.5019763,170.362661 C-12.5019763,160.675528 -4.81973707,152.822555 4.65678524,152.822555 Z M4.65678524,157.328623 C-2.31291863,157.328623 -8.00131752,163.143443 -8.00131752,170.362661 C-8.00131752,177.581878 -2.31291863,183.396699 4.65678524,183.396699 C11.6264891,183.396699 17.314888,177.581878 17.314888,170.362661 C17.314888,163.143443 11.6264891,157.328623 4.65678524,157.328623 Z" id="椭圆形" fill="#E7F4FF" fill-rule="nonzero" mask="url(#mask-6)"></path>
                        <path d="M69.9163373,117.742343 C79.3928596,117.742343 87.0750988,125.595316 87.0750988,135.282449 C87.0750988,144.969582 79.3928596,152.822555 69.9163373,152.822555 C60.439815,152.822555 52.7575758,144.969582 52.7575758,135.282449 C52.7575758,125.595316 60.439815,117.742343 69.9163373,117.742343 Z M69.9163373,122.248411 C62.9466334,122.248411 57.2582345,128.063232 57.2582345,135.282449 C57.2582345,142.501667 62.9466334,148.316487 69.9163373,148.316487 C76.8860412,148.316487 82.5744401,142.501667 82.5744401,135.282449 C82.5744401,128.063232 76.8860412,122.248411 69.9163373,122.248411 Z" id="椭圆形" fill="#E7F4FF" fill-rule="nonzero" mask="url(#mask-6)"></path>
                        <path d="M134.050725,99.9146949 C143.527247,99.9146949 151.209486,107.767668 151.209486,117.454801 C151.209486,127.141934 143.527247,134.994906 134.050725,134.994906 C124.574202,134.994906 116.891963,127.141934 116.891963,117.454801 C116.891963,107.767668 124.574202,99.9146949 134.050725,99.9146949 Z M134.050725,104.420763 C127.081021,104.420763 121.392622,110.235583 121.392622,117.454801 C121.392622,124.674018 127.081021,130.488839 134.050725,130.488839 C141.020429,130.488839 146.708827,124.674018 146.708827,117.454801 C146.708827,110.235583 141.020429,104.420763 134.050725,104.420763 Z" id="椭圆形" fill="#E7F4FF" fill-rule="nonzero" mask="url(#mask-6)"></path>
                        <path d="M173.994071,152.822555 C183.470593,152.822555 191.152833,160.675528 191.152833,170.362661 C191.152833,180.049794 183.470593,187.902767 173.994071,187.902767 C164.517549,187.902767 156.83531,180.049794 156.83531,170.362661 C156.83531,160.675528 164.517549,152.822555 173.994071,152.822555 Z M173.994071,157.328623 C167.024367,157.328623 161.335968,163.143443 161.335968,170.362661 C161.335968,177.581878 167.024367,183.396699 173.994071,183.396699 C180.963775,183.396699 186.652174,177.581878 186.652174,170.362661 C186.652174,163.143443 180.963775,157.328623 173.994071,157.328623 Z" id="椭圆形" fill="#E7F4FF" fill-rule="nonzero" mask="url(#mask-6)"></path>
                        <path d="M203.810935,13.0767941 C213.287458,13.0767941 220.969697,20.929767 220.969697,30.6168999 C220.969697,40.3040329 213.287458,48.1570057 203.810935,48.1570057 C194.334413,48.1570057 186.652174,40.3040329 186.652174,30.6168999 C186.652174,20.929767 194.334413,13.0767941 203.810935,13.0767941 Z M203.810935,17.582862 C196.841232,17.582862 191.152833,23.3976825 191.152833,30.6168999 C191.152833,37.8361173 196.841232,43.6509378 203.810935,43.6509378 C210.780639,43.6509378 216.469038,37.8361173 216.469038,30.6168999 C216.469038,23.3976825 210.780639,17.582862 203.810935,17.582862 Z" id="椭圆形" fill="#E7F4FF" fill-rule="nonzero" mask="url(#mask-6)"></path>
                        <path d="M235.315547,185.027339 C244.792069,185.027339 252.474308,192.880312 252.474308,202.567445 C252.474308,212.254578 244.792069,220.107551 235.315547,220.107551 C225.839024,220.107551 218.156785,212.254578 218.156785,202.567445 C218.156785,192.880312 225.839024,185.027339 235.315547,185.027339 Z M235.315547,189.533407 C228.345843,189.533407 222.657444,195.348228 222.657444,202.567445 C222.657444,209.786663 228.345843,215.601483 235.315547,215.601483 C242.285251,215.601483 247.97365,209.786663 247.97365,202.567445 C247.97365,195.348228 242.285251,189.533407 235.315547,189.533407 Z" id="椭圆形" fill="#E7F4FF" fill-rule="nonzero" mask="url(#mask-6)"></path>
                        <path d="M243.80128,217.800832 L209.336912,0.71254848 L16.1711488,5.3492171 L0.697947504,217.801842 L114.260602,220.396043 L125.653058,150.233646 L136.162288,202.56359 L136.15677,220.396043 L243.80128,217.800832 Z M208.858424,1.28669857 L243.144443,217.252957 L136.719053,219.820289 L136.719352,202.508076 L125.594848,147.08448 L113.783696,219.820289 L1.30154414,217.25183 L16.6949223,5.89978557 L208.858424,1.28669857 Z" id="路径-232" fill="#000000" fill-rule="nonzero"></path>
                        <polygon id="路径-236" fill="#000000" points="107.328063 29.7542718 125.893281 148.874731 122.548957 171.800374"></polygon>
                        <polygon id="路径-32" fill="#000000" points="212.263537 18.3255941 14.2239775 34.0881231 14.2239775 24.0034174"></polygon>
                    </g>
                    <g id="编组-70" transform="translate(245.848485, 244.454183)">
                        <mask id="mask-8" fill="white">
                            <use xlink:href="#path-7"></use>
                        </mask>
                        <use id="路径-231" fill="#FFC7CA" xlink:href="#path-7"></use>
                        <polygon id="路径-495" fill="#000000" mask="url(#mask-8)" points="49.2025314 4.02864702 3.41818867 39.6760565 0.257867416 35.0453638"></polygon>
                    </g>
                    <path d="M275.039565,326.757234 L275.986251,326.149233 L276.702579,327.2595 L277.27065,328.127467 C283.409353,337.438424 289.047609,343.758546 294.162276,347.075205 L294.397966,347.226149 L294.985378,347.593949 C300.969605,351.406807 317.55457,364.772772 344.81016,387.745292 C350.387477,392.335061 354.371691,396.905918 356.762827,401.465981 L356.92339,401.776878 L357.078541,402.086819 C359.355959,406.709471 368.823846,418.236008 385.388045,436.537918 C386.38827,437.636989 388.830621,437.998037 390.920508,437.34125 C392.551464,436.972119 393.267424,435.75927 393.042953,433.798118 C392.858936,432.190403 392.016791,430.295634 390.907515,428.946224 L390.767493,428.780448 L390.210062,428.156703 L389.584831,427.432498 C387.495135,424.979754 383.47893,420.005271 377.523734,412.493935 L375.59878,410.063151 L376.45415,409.351587 L399.406602,435.739363 C400.797467,436.886241 402.477381,436.753323 404.576818,435.280599 C407.147317,433.477433 407.135859,429.993997 404.687974,426.433962 L404.565623,426.258823 L404.44566,426.092268 C403.969173,425.440469 402.973492,424.249188 401.463589,422.52497 L400.941249,421.930501 L399.648525,420.472853 L384.367951,403.768227 L385.197593,403.0025 L390.628151,409.075816 L398.048512,417.081284 L399.047088,418.174359 L403.730902,423.449409 L410.915208,431.121988 L410.992894,431.168555 C412.761692,432.182076 414.506044,432.067093 416.315276,430.804051 L416.475085,430.689626 L416.630791,430.572664 L416.779706,430.455828 C419.517459,428.263099 419.778492,423.799663 417.471709,420.913958 L417.354229,420.771005 L417.005649,420.368201 C415.530052,418.691645 411.564275,414.442436 405.119011,407.632103 L399.453702,401.658374 L394.219975,396.155582 L395.025547,395.375301 L419.14185,419.96609 L419.231776,420.025362 C421.249938,421.320668 422.821062,421.122833 424.15515,419.40719 L424.245745,419.287862 L424.335621,419.163828 L424.42495,419.034902 C426.037934,416.654808 425.592865,414.538698 422.917005,411.239294 L422.768836,411.058144 L422.321018,410.528324 C421.387084,409.456069 418.331445,406.101018 413.162336,400.472272 L408.953242,395.893961 L395.573698,381.378581 L396.368725,380.602945 L410.875827,394.737743 L410.939875,394.764914 C412.948869,395.593382 414.446085,395.28896 415.574587,393.834709 L415.667778,393.710859 L415.756895,393.585152 L415.841834,393.458491 C417.284966,391.2475 417.049228,389.739709 414.753562,386.759474 L414.484855,386.415681 L414.353883,386.250568 L414.295001,386.169826 L413.556573,385.204403 C411.993786,383.175406 409.271763,379.703902 408.17833,378.3926 C407.012997,376.995072 405.933939,375.776973 404.922201,374.719852 C403.947051,373.70096 403.042859,372.840824 402.209852,372.141208 L401.984433,371.954385 L401.539316,371.595641 L402.237326,370.714659 L402.457701,370.889683 C403.456859,371.68323 404.546915,372.699493 405.734603,373.940458 C406.57104,374.814414 407.450387,375.793818 408.384043,376.889765 L408.697289,377.259413 L409.268994,377.944844 L409.730218,378.511067 C410.687452,379.695259 412.047008,381.424006 413.486431,383.278173 L413.863533,383.764438 L415.220381,385.532837 L415.366116,385.715331 L415.651113,386.080721 C418.137378,389.320096 418.501189,391.256326 416.965842,393.785615 L416.878592,393.926753 L416.783715,394.074743 C415.352078,396.268123 413.259807,396.877244 410.673105,395.871224 L410.503708,395.803324 L410.290437,395.707296 L410.164326,395.616117 L409.480623,394.930377 L414.793745,400.58458 L420.4129,406.726423 C421.764573,408.211798 422.670539,409.217729 423.131899,409.745449 L423.333301,409.978609 L423.672681,410.383711 C424.92237,411.896238 425.592533,412.961459 426.031146,414.160909 C426.739851,416.098963 426.530902,417.933771 425.356022,419.667405 C423.745661,422.043628 421.629751,422.604305 419.207511,421.315781 L419.03946,421.223283 L419.093678,421.318052 C420.874627,424.510664 420.418126,428.713601 417.771885,431.090075 L417.628028,431.215622 L417.482571,431.335507 C415.203714,433.160695 412.8699,433.468479 410.585676,432.230742 L410.426393,432.14188 L410.235351,432.025228 L410.144648,431.94705 L406.646333,428.122636 L406.681717,428.212565 C407.813707,431.210397 407.401238,434.355053 405.59436,435.916299 L405.479616,436.0118 L405.363651,436.101299 L405.222455,436.203199 C403.135726,437.667008 400.274254,437.73221 398.87563,436.745428 L398.780453,436.674881 L398.623036,436.542135 L392.787117,429.705956 L392.81124,429.746576 C393.519028,430.992504 394.014959,432.395667 394.160802,433.669863 C394.44822,436.180971 393.395246,437.93609 391.187684,438.435011 C388.776327,439.162023 386.003985,438.755792 384.653717,437.398858 L384.555141,437.295308 L383.076273,435.65841 C367.634872,418.536028 358.707669,407.643907 356.215728,402.873152 L356.142184,402.730457 L355.918878,402.284395 C353.674633,397.87223 349.856924,393.415782 344.461165,388.918215 L344.090827,388.611499 L338.423119,383.84382 L334.915991,380.903948 C313.367607,362.867632 299.896918,352.105317 294.555663,348.656145 L294.387958,348.548548 L294.039596,348.330018 C288.48231,344.903899 282.398405,338.090949 275.761267,327.876632 L275.039565,326.757234 Z" id="形状" fill="#000000" fill-rule="nonzero"></path>
                    <path d="M24.7959488,373.571245 L230.87686,363.006196 C241.920194,362.992367 246.996691,358.490932 246.106352,349.50189 C245.216013,340.512848 234.839167,302.624119 214.975814,235.835703 L221.71453,246.943499 L243.30907,282.538964 L300.418972,245.192221 C263.883027,163.947444 217.986245,123.325055 162.728628,123.325055 C145.88803,137.671335 132.531728,137.4931 122.659722,122.79035 C88.8067707,122.79035 62.3598102,135.479546 43.3188406,160.857939 C24.277871,186.236332 14.278026,257.140767 13.3193057,373.571245 L24.7959488,373.571245 Z" id="路径-230" fill="#95BDEC"></path>
                    <g id="编组-89" transform="translate(159.773386, 723.787154)">
                        <path d="M32.2107565,16.3374596 L31.1138019,1.45940465 C29.4970014,0.573227662 28.1729223,0.351683417 27.1415645,0.794771908 C25.5945279,1.45940465 24.4789854,2.7889467 24.4789854,6.18291604 C24.4789854,8.44556226 24.4789854,12.2996761 24.4789854,17.7452577 C3.84089658,24.2742934 -3.44033284,39.9507828 2.63529709,64.7747259 L155.272727,64.5636294 C151.368288,13.8071562 130.328765,-3.32605231 92.1541597,13.1640038 C81.4344986,22.055042 71.730441,26.5892361 63.0419868,26.7665858 C54.3535325,26.9439356 44.0764558,23.4675602 32.2107565,16.3374596 Z" id="路径-235" fill="#FFFFFF"></path>
                        <polygon id="路径-239" fill="#95BDEC" points="1.68774704 60.7621322 154.710145 60.7621322 155.272727 64.5636294 2.3647698 64.7747259"></polygon>
                        <path d="M26.9025497,0.592950084 C25.088045,1.42866487 24.1976942,3.08222271 24.1976942,6.18291604 L24.1972292,17.5398692 L24.3942336,17.4767155 C3.60506085,24.053548 -3.74677019,39.8820427 2.36208888,64.8417541 L2.41468696,65.0566605 L155.576483,64.8448388 L155.553188,64.542003 C151.635259,13.6101724 130.415152,-3.67009177 92.0427268,12.9054155 L91.9747105,12.9471269 C81.299684,21.8011447 71.6516617,26.3091563 63.0362531,26.4850151 L62.7078414,26.4899551 C54.2588591,26.5718862 44.289225,23.1993762 32.8037638,16.3640472 L32.4801291,16.1700246 L31.3830675,1.28592106 L31.2488776,1.21237082 C29.5635399,0.288628242 28.1549477,0.0529433181 27.0306429,0.535963436 L26.9025497,0.592950084 Z M30.80145,1.61136562 L30.8441397,1.63401287 L31.9409642,16.5038006 L32.0660016,16.5789356 C43.9732214,23.7339859 54.2987242,27.2267421 63.0477204,27.0481566 L63.3502369,27.040253 C71.9327522,26.7671159 81.4685374,22.3117295 91.9628242,13.6870136 L92.3011976,13.4072417 L93.3997608,12.9404713 C130.281515,-2.4815626 150.724729,14.1668484 154.870448,63.0779005 L154.967245,64.2824379 L2.85623057,64.4925334 L2.90850529,64.7076976 C-3.1338955,40.019523 4.07673232,24.4950389 24.5637371,18.0137998 L24.7602765,17.9516229 L24.7602765,6.18291604 C24.7602765,3.22172726 25.574149,1.77462203 27.2524862,1.05358038 C28.1548041,0.665929549 29.3355572,0.842776158 30.80145,1.61136562 Z" id="路径-235" fill="#000000" fill-rule="nonzero"></path>
                        <path d="M110.484848,0.00498458837 C110.730308,0.00498458837 110.934457,0.104611023 110.976793,0.235990619 L110.984848,0.286613831 L110.984848,25.508631 C110.984848,25.6641705 110.760991,25.7902602 110.484848,25.7902602 C110.239389,25.7902602 110.03524,25.6906338 109.992904,25.5592542 L109.984848,25.508631 L109.984848,0.286613831 C109.984848,0.131074295 110.208706,0.00498458837 110.484848,0.00498458837 Z" id="路径-332" fill="#0083EC" fill-rule="nonzero"></path>
                        <path d="M116.110672,0.00498458837 C116.356132,0.00498458837 116.56028,0.104611023 116.602616,0.235990619 L116.610672,0.286613831 L116.610672,25.508631 C116.610672,25.6641705 116.386814,25.7902602 116.110672,25.7902602 C115.865212,25.7902602 115.661064,25.6906338 115.618728,25.5592542 L115.610672,25.508631 L115.610672,0.286613831 C115.610672,0.131074295 115.83453,0.00498458837 116.110672,0.00498458837 Z" id="路径-332" fill="#0083EC" fill-rule="nonzero"></path>
                        <path d="M121.736495,0.00498458837 C121.981955,0.00498458837 122.186104,0.104611023 122.22844,0.235990619 L122.236495,0.286613831 L122.236495,25.508631 C122.236495,25.6641705 122.012638,25.7902602 121.736495,25.7902602 C121.491035,25.7902602 121.286887,25.6906338 121.244551,25.5592542 L121.236495,25.508631 L121.236495,0.286613831 C121.236495,0.131074295 121.460353,0.00498458837 121.736495,0.00498458837 Z" id="路径-332" fill="#0083EC" fill-rule="nonzero"></path>
                    </g>
                    <g id="编组-88" transform="translate(0.000000, 91.811133)">
                        <path d="M38.1433157,652.571846 L37.0942283,639.001797 C35.5479791,638.193528 34.2816779,637.991461 33.2953249,638.395595 C31.8157953,639.001797 30.748931,640.214452 30.748931,643.31004 C30.748931,645.373766 30.748931,648.889045 30.748931,653.855878 C11.0114134,659.810913 4.04791031,674.109203 9.85842184,696.750747 L155.83531,696.558209 C155.023122,652.193636 136.362626,637.531515 99.8538215,652.571846 C86.680051,658.751588 75.9385049,661.922337 67.6291832,662.084095 C59.3198616,662.245853 49.4912391,659.075104 38.1433157,652.571846 Z" id="路径-235" fill="#FFFFFF"></path>
                        <polygon id="路径-240" fill="#95BDEC" points="155.83531 696.685015 155.83531 693.306204 9.00131752 693.306204 9.77855544 696.750747"></polygon>
                        <path d="M33.060106,638.189642 C31.3229795,638.955375 30.4676398,640.473339 30.4676398,643.31004 L30.4672095,653.647391 L30.6677692,653.586226 C10.9771691,659.527106 3.88169703,673.751468 9.41445517,696.139896 L9.64034251,697.032664 L156.121797,696.83946 L156.116554,696.553048 C155.300946,652.001677 136.450891,637.190614 99.7467855,652.311403 C86.5932438,658.4813 75.8868955,661.641659 67.6237149,661.802519 L67.2837556,661.807253 C59.2176608,661.875114 49.7039107,658.805816 38.7468842,652.591858 L38.4119974,652.4009 L37.3626467,638.824403 L37.2244149,638.752146 C35.6116904,637.909128 34.2645813,637.694166 33.1887869,638.134947 L33.060106,638.189642 Z M36.7878809,639.161429 L36.8260777,639.18066 L37.874354,652.742211 L38.0035791,652.816268 C49.3919506,659.342705 59.2673882,662.528557 67.6346515,662.365671 C75.9901143,662.203015 86.7668582,659.021875 99.9731653,652.826872 L101.056852,652.387078 C136.282567,638.309296 154.385716,652.534122 155.524504,695.246936 L155.547267,696.277046 L10.076975,696.468554 L10.1308637,696.680662 C4.35618136,674.178731 11.2445526,660.034711 30.8300927,654.125529 L31.0302222,654.065148 L31.0302222,643.31004 C31.0302222,640.621209 31.802572,639.311514 33.4018629,638.656243 C34.2628981,638.303455 35.38989,638.463685 36.7878809,639.161429 Z" id="路径-235" fill="#000000" fill-rule="nonzero"></path>
                        <path d="M118.361001,637.050763 C118.606461,637.050763 118.81061,637.15039 118.852946,637.281769 L118.861001,637.332392 L118.861001,662.592369 C118.861001,662.747909 118.637144,662.873998 118.361001,662.873998 C118.115541,662.873998 117.911393,662.774372 117.869057,662.642992 L117.861001,662.592369 L117.861001,637.332392 C117.861001,637.176853 118.084859,637.050763 118.361001,637.050763 Z" id="路径-332" fill="#0083EC" fill-rule="nonzero"></path>
                        <path d="M123.986825,637.050763 C124.232285,637.050763 124.436433,637.15039 124.478769,637.281769 L124.486825,637.332392 L124.486825,662.592369 C124.486825,662.747909 124.262967,662.873998 123.986825,662.873998 C123.741365,662.873998 123.537216,662.774372 123.49488,662.642992 L123.486825,662.592369 L123.486825,637.332392 C123.486825,637.176853 123.710682,637.050763 123.986825,637.050763 Z" id="路径-332" fill="#0083EC" fill-rule="nonzero"></path>
                        <path d="M129.612648,637.050763 C129.858108,637.050763 130.062257,637.15039 130.104593,637.281769 L130.112648,637.332392 L130.112648,662.592369 C130.112648,662.747909 129.888791,662.873998 129.612648,662.873998 C129.367188,662.873998 129.16304,662.774372 129.120704,662.642992 L129.112648,662.592369 L129.112648,637.332392 C129.112648,637.176853 129.336506,637.050763 129.612648,637.050763 Z" id="路径-332" fill="#0083EC" fill-rule="nonzero"></path>
                        <g id="编组-30">
                            <path d="M87.7927349,34.1103878 L64.1343874,41.6811279 C67.34308,33.7028721 71.4681101,28.2627608 76.5094778,25.3607941 C84.0715294,21.0078441 97.1921701,19.1350001 103.947239,22.7574971 C108.450618,25.1724951 112.244665,28.0837734 115.329381,31.4913321 L96.4068214,33.1262141 C96.3468163,29.96899 94.8272467,28.727162 91.8481128,29.4007302 C88.8689789,30.0742984 87.5171863,31.6441843 87.7927349,34.1103878 Z" id="路径-508" fill="#FFCB5D"></path>
                            <g id="编组-119" transform="translate(114.766798, 19.714047)">
                                <mask id="mask-10" fill="white">
                                    <use xlink:href="#path-9"></use>
                                </mask>
                                <use id="路径-507" fill="#FFCB5D" xlink:href="#path-9"></use>
                                <polygon id="路径-212" fill="#83A8D3" mask="url(#mask-10)" points="51.923747 21.1263311 60.1328773 15.0414959 68.7677846 42.8568247"></polygon>
                            </g>
                            <path d="M136.144928,40.554611 C135.459985,25.3493783 130.611779,13.4895946 121.600309,4.97525977 C108.083103,-7.79624242 90.1682282,7.42666751 84.3931999,12.7745912 C80.5431811,16.3398737 77.3532651,25.5998803 74.8234519,40.554611 L94.7859003,40.554611 C94.459409,21.2674412 98.0255055,9.75964409 105.48419,6.03121977 C116.672216,0.438583297 124.961425,3.69597879 125.707933,15.4820003 C126.205606,23.3393479 123.269759,31.6968848 116.900394,40.554611 L136.144928,40.554611 Z" id="路径-509" fill="#FFAE00"></path>
                            <mask id="mask-12" fill="white">
                                <use xlink:href="#path-11"></use>
                            </mask>
                            <use id="矩形" fill="#FFAE00" xlink:href="#path-11"></use>
                            <mask id="mask-14" fill="white">
                                <use xlink:href="#path-13"></use>
                            </mask>
                            <use id="矩形" fill="#FFCB5D" xlink:href="#path-13"></use>
                            <path d="M57.4483087,160.528668 L162.150198,160.528668 C167.673045,160.528668 172.150198,165.005821 172.150198,170.528668 L172.150198,249.674298 C172.150198,260.167708 163.643608,268.674298 153.150198,268.674298 L57.4483087,268.674298 C27.5847178,268.674298 3.37549407,244.465074 3.37549407,214.601483 C3.37549407,184.737892 27.5847178,160.528668 57.4483087,160.528668 Z" id="矩形" fill="#7EA7D7"></path>
                            <rect id="矩形" fill="#8EB4E1" x="3.37549407" y="160.528668" width="156.960474" height="108.145629" rx="54.0728146"></rect>
                            <path d="M8.54481758,161.091927 L168.774704,161.091927 C164.960553,164.356795 162.170824,180.031201 160.405516,208.115145 C160.405516,218.928599 131.69167,217.459379 112.718581,217.807094 C93.7454914,218.154809 48.2408003,218.09469 35.6436011,216.555161 C23.0464018,215.015632 0.485919929,211.816876 0.485919929,202.85161 C0.485919929,193.886343 -0.607399912,174.861614 0.485919929,169.311949 C1.21479982,165.612171 3.90109904,162.872164 8.54481758,161.091927 Z" id="路径-506" fill="#D7E9FF"></path>
                            <path d="M161.029773,167.232591 L160.507044,167.024367 C161.263115,165.121744 162.081091,163.821654 162.975879,163.122894 L163.321881,163.567028 C162.521253,164.192257 161.752248,165.414512 161.029773,167.232591 Z M158.728847,175.874164 L158.176265,175.768436 C158.486056,174.145431 158.809673,172.672934 159.147197,171.350808 L159.692257,171.490291 C159.357734,172.800662 159.03657,174.261999 158.728847,175.874164 Z M157.354603,184.775746 L156.796464,184.705094 C156.995293,183.130591 157.201803,181.640516 157.416001,180.234849 L157.972148,180.319799 C157.758696,181.720571 157.552845,183.205894 157.354603,184.775746 Z M156.391198,193.713342 L155.830998,193.66156 C155.974361,192.10686 156.123036,190.61072 156.277026,189.173133 L156.836401,189.233195 C156.682712,190.667969 156.534311,192.161353 156.391198,193.713342 Z M155.667772,202.692626 L155.106579,202.65307 L155.238759,200.822428 C155.305823,199.917845 155.374346,199.029367 155.444329,198.156995 L156.005106,198.20209 L155.867261,199.966073 C155.799309,200.858809 155.732813,201.76766 155.667772,202.692626 Z M149.947248,209.177035 L149.759802,208.645961 C151.420429,208.058422 152.700383,207.359095 153.58541,206.541818 L153.966834,206.955855 C153.018675,207.83143 151.674095,208.566067 149.947248,209.177035 Z M141.049774,210.995578 L140.986269,210.43592 C142.598868,210.252496 144.074732,210.033999 145.416793,209.776877 L145.522529,210.330097 C144.165606,210.590068 142.675828,210.810624 141.049774,210.995578 Z M132.076,211.630537 L132.054139,211.067704 L133.227208,211.018316 C134.38238,210.965883 135.484621,210.904196 136.540782,210.832206 L136.578994,211.394164 C135.165047,211.490541 133.669513,211.568492 132.076,211.630537 Z M123.051352,211.823945 L123.046223,211.26071 L124.630914,211.243926 C125.653721,211.231454 126.614312,211.21628 127.543235,211.197594 L127.554536,211.760739 L125.642551,211.793718 C124.820802,211.805705 123.962971,211.815624 123.051352,211.823945 Z M114.01714,211.317019 L118.51859,211.29005 L118.521395,211.853302 L114.021849,211.880258 L114.01714,211.317019 Z M105.051237,211.99402 L105.045603,211.43079 L108.120204,211.395493 C108.608369,211.389113 109.083808,211.382492 109.545636,211.375642 L109.55397,211.938839 L107.133981,211.971146 C106.460599,211.979223 105.765651,211.986857 105.051237,211.99402 Z M96.0476038,212.054327 L96.0454853,211.491072 L99.6656515,211.473433 C99.9610761,211.471656 100.254797,211.469804 100.54671,211.467877 L100.55042,212.031123 L96.9660959,212.050613 C96.6612865,212.051929 96.3550876,212.053167 96.0476038,212.054327 Z M87.0456578,212.065396 L87.0463573,211.502138 L90.0529981,211.50342 C90.5523627,211.503223 91.0506464,211.502822 91.5475347,211.502219 L91.5482172,212.065477 L88.5517383,212.066654 C88.050373,212.066441 87.5482413,212.066022 87.0456578,212.065396 Z M78.0402534,212.031668 L78.0438085,211.468421 C79.5320207,211.477837 81.0343237,211.485352 82.5445674,211.490978 L82.5424741,212.054233 L79.533425,212.040454 C79.0342878,212.037736 78.536488,212.034808 78.0402534,212.031668 Z M69.0418948,211.948781 L69.0488234,211.385566 L71.2771096,211.411208 C72.0270709,211.419234 72.7840245,211.426741 73.5473494,211.433726 L73.542207,211.996961 L71.2710809,211.974434 C70.520822,211.966404 69.777553,211.957853 69.0418948,211.948781 Z M60.0411342,211.803209 L60.0526803,211.240069 L62.7164661,211.291017 C63.320189,211.301741 63.9316111,211.312066 64.5504371,211.321992 L64.5414248,211.885178 L61.8061743,211.837792 C61.2098854,211.826663 60.6214403,211.815136 60.0411342,211.803209 Z M51.0383662,211.562883 L51.0576309,210.999955 L52.684243,211.053068 C53.6079625,211.081775 54.5648326,211.109149 55.5535544,211.13519 L55.5387601,211.698254 L53.2254513,211.633134 C52.4751649,211.610572 51.7459158,211.587155 51.0383662,211.562883 Z M42.0337249,211.127494 L42.0729933,210.565609 C43.3767143,210.656941 44.8757246,210.741855 46.5600223,210.820345 L46.5338654,211.382994 L45.3024193,211.322769 C44.1059874,211.261328 43.0150541,211.196241 42.0337249,211.127494 Z M33.0721107,210.157379 L33.1449102,209.598856 L34.2204124,209.736845 C35.3040596,209.873388 36.4173965,210.006356 37.6077134,210.142568 L37.5438282,210.702183 L36.3753078,210.566554 C35.2289161,210.431494 34.1436458,210.297382 33.0721107,210.157379 Z M24.1612948,208.761037 L24.2659383,208.207608 C25.6765938,208.474979 27.1512347,208.726829 28.6934498,208.966023 L28.6073268,209.522642 C27.0591621,209.282526 25.5783913,209.029629 24.1612948,208.761037 Z M15.3880204,206.614273 L15.5600123,206.077982 C16.8762815,206.501134 18.3173521,206.898802 19.8771632,207.27305 L19.7460561,207.8208 C18.1731218,207.443403 16.7185534,207.04201 15.3880204,206.614273 Z M7.34622615,202.375352 L7.75176771,201.984967 C8.59872239,202.86692 9.8225665,203.689225 11.3986168,204.45202 L11.153767,204.959134 C9.52233334,204.169534 8.2450638,203.311332 7.34622615,202.375352 Z M5.70227438,193.537206 L6.26464022,193.521581 L6.317502,195.615388 C6.3376185,196.523888 6.35058422,197.315568 6.3567067,198.031919 L5.79414495,198.036738 L5.78352445,197.141163 C5.76842324,196.125876 5.74156637,194.954781 5.70227438,193.537206 Z M5.43916429,184.527445 L6.00156929,184.513303 L6.1297495,189.016636 L5.56743015,189.033857 L5.44466055,184.744768 C5.44281221,184.672274 5.44098104,184.599868 5.43916429,184.527445 Z M5.37243206,175.502118 L5.93486201,175.515228 C5.90455572,176.818528 5.89962552,178.309828 5.91733926,180.011768 L5.35478746,180.017637 L5.34780672,179.181157 C5.33937156,177.815886 5.34704114,176.594036 5.37243206,175.502118 Z M7.58480814,166.742915 L8.00992583,167.111833 C7.17003092,168.082003 6.618959,169.178049 6.35418299,170.404185 C6.31213379,170.598969 6.27311108,170.816581 6.23712152,171.056585 L5.68077433,170.972958 C5.71846025,170.721641 5.75957647,170.492355 5.80430169,170.285175 C6.08916508,168.966018 6.68337994,167.784162 7.58480814,166.742915 Z M15.6955718,163.063332 L15.6955718,163.62659 L13.6009865,163.62659 L13.6937517,163.610835 C12.9166316,163.882629 12.1998805,164.180704 11.5434974,164.504929 L11.2945849,163.999802 C11.9721578,163.66511 12.710037,163.358248 13.5082214,163.079087 L13.6009865,163.063332 L15.6955718,163.063332 Z M24.6968893,163.063332 L24.6968893,163.62659 L20.1962305,163.62659 L20.1962305,163.063332 L24.6968893,163.063332 Z M33.6982068,163.063332 L33.6982068,163.62659 L29.197548,163.62659 L29.197548,163.063332 L33.6982068,163.063332 Z M42.6995243,163.063332 L42.6995243,163.62659 L38.1988656,163.62659 L38.1988656,163.063332 L42.6995243,163.063332 Z M51.7008418,163.063332 L51.7008418,163.62659 L47.2001831,163.62659 L47.2001831,163.063332 L51.7008418,163.063332 Z M60.7021594,163.063332 L60.7021594,163.62659 L56.2015006,163.62659 L56.2015006,163.063332 L60.7021594,163.063332 Z M69.7034769,163.063332 L69.7034769,163.62659 L65.2028181,163.62659 L65.2028181,163.063332 L69.7034769,163.063332 Z M78.7047944,163.063332 L78.7047944,163.62659 L74.2041357,163.62659 L74.2041357,163.063332 L78.7047944,163.063332 Z M87.7061119,163.063332 L87.7061119,163.62659 L83.2054532,163.62659 L83.2054532,163.063332 L87.7061119,163.063332 Z M96.7074295,163.063332 L96.7074295,163.62659 L92.2067707,163.62659 L92.2067707,163.063332 L96.7074295,163.063332 Z M105.708747,163.063332 L105.708747,163.62659 L101.208088,163.62659 L101.208088,163.063332 L105.708747,163.063332 Z M114.710065,163.063332 L114.710065,163.62659 L110.209406,163.62659 L110.209406,163.063332 L114.710065,163.063332 Z M123.711382,163.063332 L123.711382,163.62659 L119.210723,163.62659 L119.210723,163.063332 L123.711382,163.063332 Z M132.7127,163.063332 L132.7127,163.62659 L128.212041,163.62659 L128.212041,163.063332 L132.7127,163.063332 Z M141.714017,163.063332 L141.714017,163.62659 L137.213358,163.62659 L137.213358,163.063332 L141.714017,163.063332 Z M150.715335,163.063332 L150.715335,163.62659 L146.214676,163.62659 L146.214676,163.063332 L150.715335,163.063332 Z M159.716652,163.063332 L159.716652,163.62659 L155.215993,163.62659 L155.215993,163.063332 L159.716652,163.063332 Z" id="路径-506" fill="#95BDEC" fill-rule="nonzero"></path>
                        </g>
                    </g>
                </g>
            </g>
        </g>
    </g>
</svg>