<?xml version="1.0" encoding="UTF-8"?>
<svg width="285px" height="245px" viewBox="0 0 285 245" version="1.1" xmlns="http://www.w3.org/2000/svg" xmlns:xlink="http://www.w3.org/1999/xlink">
    <!-- Generator: Sketch 63 (92445) - https://sketch.com -->
    <title>图书义卖背景</title>
    <desc>Created with Sketch.</desc>
    <defs>
        <path d="M299.491127,64.9568758 C265.460164,170.799425 246.599833,226.391343 242.910133,231.73263 C169.743576,225.970592 129.090139,225.110943 120.949822,229.153683 L254.029757,243.172034 L308.259561,76.4809937 L299.491127,64.9568758 Z" id="path-1"></path>
        <path d="M170.814044,86.6956876 C170.409914,93.671249 170.077138,107.640289 169.815715,128.602806 L187.594113,125.027451 L187.594113,82.8321504 C178.563724,83.9972228 172.970367,85.2850686 170.814044,86.6956876 Z" id="path-3"></path>
        <path d="M114.974231,33.597683 C114.570101,40.5732443 114.237325,54.5422839 113.975903,75.5048016 L131.7543,71.9294468 L139.052673,25.9047264 C125.156702,29.6227451 117.130555,32.1870639 114.974231,33.597683 Z" id="path-5"></path>
        <path d="M147.323272,25.9665901 C144.773518,38.3507707 142.798181,52.7140508 141.397262,69.0564304 L220.52701,51.6644666 L218.675445,6.86632503 L178.448922,15.5220711 L173.172325,30.2923118 L174.138707,16.4525202 C158.418074,21.3846144 149.479595,24.5559711 147.323272,25.9665901 Z" id="path-7"></path>
    </defs>
    <g id="页面-1" stroke="none" stroke-width="1" fill="none" fill-rule="evenodd">
        <g id="iPhone-8" transform="translate(-157.000000, -914.000000)">
            <g id="场景" transform="translate(93.000000, 62.000000)">
                <g id="图书义卖背景" transform="translate(0.000000, 803.000000)">
                    <circle id="椭圆形" fill="#FFE5C4" cx="117.97235" cy="81.1059908" r="14.7465438"></circle>
                    <circle id="椭圆形" fill="#FFE5C4" cx="200" cy="58.0645161" r="8.29493088"></circle>
                    <ellipse id="椭圆形" fill="#FFECD5" cx="336.40553" cy="158.525346" rx="11.9815668" ry="11.0599078"></ellipse>
                    <g id="书" transform="translate(200.129364, 187.463091) rotate(-24.000000) translate(-200.129364, -187.463091) translate(41.604018, 54.744196)">
                        <g id="编组-46" transform="translate(-0.000000, -0.000000)">
                            <path d="M85.7205823,2.95684342 L0.661831215,154.00507 C65.1983926,186.862994 104.764495,212.714768 119.360139,231.560392 C129.808657,233.133501 232.765962,244.430222 257.530846,255.443005 C261.020173,248.564477 280.22215,189.079392 315.136778,76.9877488 L188.229092,66.940854 L93.6960425,6.28122477 L85.7205823,2.95684342 Z" id="路径-434" fill="#F68600"></path>
                            <mask id="mask-2" fill="white">
                                <use xlink:href="#path-1"></use>
                            </mask>
                            <use id="路径-371" fill="#FFDFB5" xlink:href="#path-1"></use>
                            <path d="M240.979729,229.198558 L255.836847,246.052723 C176.155278,236.589133 131.192936,230.956119 120.949822,229.153683 C123.010287,227.464877 128.005081,226.064974 135.934205,224.953974 L240.979729,229.198558 Z" id="路径-410" fill="#FFCC83" mask="url(#mask-2)"></path>
                            <path d="M105.932015,-1.92386217e-13 C62.7047883,80.4967785 36.2863488,128.038615 26.6766962,142.625509 C45.4958207,142.108056 102.036612,195.599448 120.147343,226.042429 C121.060631,227.577608 120.945317,229.153273 120.945317,229.153273 C119.967547,228.53976 83.2648948,189.940382 62.9590217,173.731675 C43.0613759,157.848825 25.3605351,150.111409 10.1999478,150.670721 C10.7752321,149.209449 77.7432875,33.5468927 91.5767401,5.52723286 C92.1737815,4.69698063 95.2847871,3.04759347 99.1912963,1.53272828 C100.789063,0.913146611 103.035969,0.402237185 105.932015,-1.92386217e-13 Z" id="路径-370" fill="#FFDFB5"></path>
                            <path d="M109.712319,2.95684342 L33.2817556,139.382695 C60.6307604,154.156254 80.113369,168.33323 91.7295813,181.913623 C103.345794,195.494016 112.724385,208.403459 119.865354,220.641953 L187.754437,64.9568758 L158.558817,22.1631866 L109.712319,2.95684342 Z" id="路径-374" fill="#EA8C1D"></path>
                            <polygon id="路径-377" fill="#FFC594" points="99.1875735 117.520648 84.8185322 183.808852 75.6299338 173.942511 96.4236077 114.685867"></polygon>
                            <path d="M77.6251655,62.5205523 C95.6738099,72.9224881 105.75575,78.6638439 107.870985,79.7446197 C106.908229,81.7480103 105.204432,84.6951448 105.204432,84.6951448 C105.204432,84.6951448 95.0601009,79.0841366 74.771439,67.8621203 L77.6251655,62.5205523 Z" id="路径-378" fill="#FFE7C7"></path>
                            <path d="M74.771439,67.8621203 C82.0588033,72.1012074 109.329698,86.7588546 109.693498,87.2773532 C108.783689,88.9472903 106.557253,93.1683613 106.557253,93.1683613 C106.557253,92.9567538 95.0172198,86.4365828 71.9371538,73.6078485 C73.2037301,70.8918939 74.1484919,68.9766511 74.771439,67.8621203 Z" id="路径-378" fill="#FFE7C7"></path>
                            <path d="M69.137201,79.7446197 C77.7877274,84.3565714 110.154297,103.532755 110.518096,104.051253 C109.65627,104.62656 106.017758,104.051253 104.13537,107.755352 C102.620459,111.799398 104.558734,116.393321 104.558734,116.393321 C102.823913,115.24202 89.128591,106.383701 63.4727669,89.8183649 C66.6261092,84.2170657 68.5142538,80.8591506 69.137201,79.7446197 Z" id="路径-378" fill="#FFE7C7"></path>
                            <path d="M72.6308856,74.0760909 C73.3630863,74.5161949 103.643962,91.2585338 104.007761,91.7770323 C102.817096,91.9478886 101.823827,92.5510619 101.139247,93.8067166 C100.346952,95.2599424 100.62788,97.8320006 100.62788,97.8320006 C97.8250319,96.0584326 87.2117671,89.9048257 68.7880858,79.3711799 C71.3499524,76.9826436 72.6308856,75.217614 72.6308856,74.0760909 Z" id="路径-378" fill="#FFE7C7"></path>
                            <path d="M167.989723,36.664207 L176.339324,46.7536995 L149.454219,78.73551 C153.72633,67.4656699 157.039454,59.1944129 159.393591,53.9217393 C161.747728,48.6490656 164.613105,42.8965549 167.989723,36.664207 Z" id="路径-382" fill="#FFC594"></path>
                            <path d="M107.870985,2.95684342 L136.713586,12.0675447 L132.131642,34.0122212 L136.713586,22.2210271 L144.278851,26.1607898 L142.152516,34.0122212 L148.857884,37.9305003 L142.152516,58.2870426 L158.719439,30.621943 L167.989723,37.9305003 L158.558817,57.3978597 L160.076723,59.5322654 L150.180577,77.8073769 L162.304814,61.1619209 L175.602004,44.1324453 L183.82896,58.2870426 L185.246074,67.8621203 C176.593798,88.0000203 171.752524,100.858096 170.722252,106.436347 C136.282213,71.943179 107.647639,51.3267677 84.8185322,44.5871128 L107.870985,2.95684342 Z" id="路径-380" fill="#FFE7C7"></path>
                            <path d="M108.333379,51.2848984 C115.591498,40.385769 123.870311,27.5823246 133.169818,12.8745651 C123.594008,29.8672569 116.046409,43.2809225 110.527021,53.115562 C110.42875,53.2650634 108.233113,51.4354623 108.333379,51.2848984 Z" id="路径-381" fill="#FFC594" transform="translate(120.749933, 32.999403) rotate(-11.000000) translate(-120.749933, -32.999403) "></path>
                            <polygon id="路径-383" fill="#FFC594" points="64.2111206 87.9386782 102.266736 110.125031 64.7624638 86.9321695"></polygon>
                            <polygon id="路径-383" fill="#FFC594" points="76.2427689 67.0041443 105.216841 82.2369689 76.6628239 66.3810353"></polygon>
                            <polygon id="路径-383" fill="#FFC594" points="67.9376784 77.7114492 99.7089712 95.6271423 68.7880858 77.283965"></polygon>
                            <polygon id="路径-383" fill="#FFC594" points="67.7713501 76.5786022 100.62788 94.0704662 69.8635589 75.1225903"></polygon>
                            <polygon id="路径-383" fill="#FFC594" points="72.8542014 70.3886384 106.70513 90.3612834 73.4936942 70.1187694"></polygon>
                            <polygon id="路径-383" fill="#FFC594" points="69.4656339 70.3886384 107.521249 92.5749911 70.0169771 69.3821297"></polygon>
                            <polygon id="路径-435" fill="#FFC594" points="65.8516811 85.9540457 103.840933 109.081767 102.266736 107.325482 65.8516811 85.5570122"></polygon>
                            <polygon id="路径-435" fill="#FFC594" points="65.8516811 84.2617987 103.840933 107.38952 102.266736 105.633235 65.8516811 83.8647651"></polygon>
                        </g>
                        <g id="编组-29" transform="translate(91.369918, 6.281225)" fill="#FFC594">
                            <polygon id="路径-381" points="22.9042676 3.30663811e-14 -2.10675677e-14 37.0406276 23.7733326 3.30663811e-14"></polygon>
                            <polygon id="路径-381" points="1.93688566 37.0406276 0.819634584 37.0406276 24.7112692 0.609597301"></polygon>
                            <polygon id="路径-381" points="2.32612419 37.7084785 26.280219 0.609597301 25.6552036 0.609597301"></polygon>
                            <polygon id="路径-381" points="9.36220003 30.3829822 27.6289036 2.07275477 26.9776219 2.07275477"></polygon>
                            <polygon id="路径-381" points="5.51448825 37.0406276 23.7811918 8.73040011 22.476767 10.4129382"></polygon>
                            <polygon id="路径-381" points="6.05470665 37.431464 24.3214102 9.12123647 23.0169854 10.8037746"></polygon>
                            <polygon id="路径-381" points="13.2909859 32.3547228 32.3411303 2.53878374 32.057164 2.53878374"></polygon>
                            <polygon id="路径-381" points="9.44327416 39.0123681 27.7099777 10.7021406 26.4055529 12.3846787"></polygon>
                            <path d="M9.98349256,39.4032045 C17.2443865,28.5029178 24.4773912,17.5022446 31.6825064,6.40118481 C24.1944453,17.501536 16.8666818,28.5022093 9.69921607,39.4032045 C9.60090778,39.5527215 9.88318837,39.5537843 9.98349256,39.4032045 Z" id="路径-381"></path>
                            <path d="M41.4249482,145.801496 L60.7023069,83.0847893 L51.8607599,78.41392 C38.6624198,111.623855 31.1976662,130.624383 29.4664993,135.415502 C30.0350522,137.496183 34.0212019,140.958181 41.4249482,145.801496 Z" id="路径-379"></path>
                        </g>
                        <g id="编组-29" transform="translate(133.279593, 46.910719) rotate(-10.000000) translate(-133.279593, -46.910719) translate(118.370642, 24.185118)" fill="#FFC594">
                            <path d="M23.4763675,0.725945342 L4.81544405e-14,38.7328747 C8.08754396,25.813916 15.9859943,13.2301621 23.6953511,0.981613102 C23.7416805,0.719182187 23.6686859,0.6339596 23.4763675,0.725945342 Z" id="路径-381"></path>
                            <polygon id="路径-381" points="1.93688566 38.7328747 0.819634584 38.7328747 24.7112692 2.30184437"></polygon>
                            <polygon id="路径-381" points="2.32612419 39.4007256 26.280219 2.30184437 25.6552036 2.30184437"></polygon>
                            <polygon id="路径-381" points="15.12468 41.7051961 28.0836377 19.6302133 28.7202929 16.0239025"></polygon>
                            <polygon id="路径-381" points="5.51448825 38.7328747 23.7811918 10.4226472 22.476767 12.1051853"></polygon>
                            <polygon id="路径-381" points="6.05470665 39.123711 24.3214102 10.8134835 23.0169854 12.4960217"></polygon>
                            <polygon id="路径-381" points="13.2909859 34.0469698 26.1785313 12.7855271 25.894565 12.7855271"></polygon>
                            <polygon id="路径-381" points="9.44327416 40.7046152 25.9100859 14.348568 24.6056612 16.0311062"></polygon>
                            <path d="M11.8737957,43.7421207 C13.8709531,40.2204247 19.1141099,30.3939806 27.6032659,14.2627883 C17.6795973,32.4758287 12.3416817,42.3022728 11.5895192,43.7421207 C11.4912109,43.8916377 11.7734915,43.8927006 11.8737957,43.7421207 Z" id="路径-381"></path>
                        </g>
                        <g id="编组-29" transform="translate(168.716974, 76.102750) rotate(4.000000) translate(-168.716974, -76.102750) translate(154.685020, 54.251211)" fill="#FFC594">
                            <path d="M26.9400444,14.2428031 C18.8668516,29.9249949 13.8806062,39.4779268 11.9813082,42.9015989 C11.8859189,43.0479875 11.6174699,43.0469542 11.7109611,42.9015989 C12.4262682,41.5018282 17.5026293,31.9488962 26.9400444,14.2428031 Z M27.2085138,14.5623678 L26.6531344,18.1268897 L15.3485275,39.9460737 L27.2085138,14.5623678 Z M26.2754932,12.6405377 L25.2461461,14.4014862 L25.56571,13.9746565 L23.0771461,18.1164862 L14.4155069,32.9475024 L19.2001461,24.5704862 L10.3171562,39.3583625 L23.4471461,17.1344862 L26.0141683,12.6405377 L26.2754932,12.6405377 Z M25.1254833,1.35019635 L18.7921461,12.0684862 L24.256575,3.01673438 L24.831274,3.01673438 L10.0571461,26.8534862 L4.12978783,36.8873847 L3.83814606,36.8864862 L2.8055852,38.5539227 L3.81114606,36.8864862 L3.09979448,36.8873847 L25.1254833,1.35019635 Z M23.0938641,1.07853176 C23.2725294,0.988512551 23.3403419,1.07191319 23.2973016,1.32873367 C16.1352524,13.3154244 8.79753389,25.6301537 1.28414606,38.2729216 L1.28414606,38.2729216 Z M24.3513501,10.1879425 L7.40851256,37.2638956 L23.1414626,11.797125 L24.3513501,10.1879425 Z" id="形状结合"></path>
                        </g>
                        <g id="编组-31" transform="translate(33.281756, 61.091925)">
                            <path d="M157.316584,2.02159563 C167.147139,1.3644125 176.982857,0.884026687 186.823739,0.580438199 C215.066509,-0.559958513 241.528386,0.534879066 266.209371,3.86495094 L215.46881,162.400942 L90.7795334,161.06958 L157.316584,2.02159563 Z" id="路径-387" fill="#EA8C1D"></path>
                            <path d="M62.3211834,68.940444 C64.5130803,69.7295534 65.7842068,70.6723531 65.7842068,70.6723531 C65.7842068,70.6723531 66.9108338,67.0117396 69.1640878,59.6905125 L77.2363406,65.8468049 C74.7326944,75.6854698 73.4808713,80.6048023 73.4808713,80.6048023 C73.4808713,80.6048023 78.0226769,85.7067454 80.9926371,89.59817 C80.9926371,89.1996216 82.6761662,85.0528726 86.0432242,77.1579231 C95.5561973,87.5609458 102.107897,97.7152545 105.698322,107.620849 C104.595273,117.358982 98.7929576,134.052845 88.2913766,157.702438 L50.3836452,120.996208 C55.0069344,98.4361109 58.9861138,81.0841897 62.3211834,68.940444 Z" id="路径-376" fill="#FFE7C7"></path>
                            <path d="M27.192096,32.9785413 C40.1220402,38.0599944 52.1052922,44.9317946 63.1418521,53.5939419 C52.7825645,90.1908357 47.3252286,111.519848 46.7698444,117.580979 C32.0854992,106.174286 16.495551,93.07755 0,78.2907701 C4.06253064,71.170883 13.1265627,56.0668067 27.192096,32.9785413 Z" id="路径-375" fill="#FFE7C7"></path>
                            <polygon id="路径-379" fill="#FFE7C7" points="74.589229 57.4764617 97.2442764 11.4164382 115.576129 26.197985 93.6662602 79.2724056"></polygon>
                            <path d="M97.6794294,89.0292676 L117.333286,27.5729357 L134.707968,47.5270736 C121.001132,79.4271977 113.163105,99.3314826 111.193886,107.239928 C106.577901,103.001323 102.073082,96.9311029 97.6794294,89.0292676 Z" id="路径-379" fill="#FFE7C7"></path>
                            <polygon id="路径-436" fill="#FFC594" points="85.1400336 69.3028586 103.831549 16.3908363 83.1892909 66.9739122"></polygon>
                        </g>
                        <g id="编组-29" transform="translate(65.578625, 130.563254) scale(1, -1) rotate(118.000000) translate(-65.578625, -130.563254) translate(34.006729, 98.222975)" fill="#FFBF89">
                            <path d="M56.5128015,22.5478701 L31.5925306,63.3397562 L31.3583329,62.8998237 L55.2083767,24.2304082 L56.5128015,22.5478701 Z M60.6548278,16.8923245 C61.6256865,15.3124907 61.9007848,15.4412174 61.4801227,17.2785047 C47.3901162,40.205018 38.0192969,55.1658061 33.367665,62.160869 L33.0801526,62.5920709 C32.2865304,63.7789879 32.2840838,62.8983281 32.5141603,62.2778096 C32.4528545,62.3698438 44.5613508,43.0805012 60.6548278,16.8923245 Z M61.1439541,14.3845132 L30.9486441,62.3712695 L60.8599878,14.3845132 L61.1439541,14.3845132 Z M57.3308469,14.2339039 L57.4974652,14.5468907 L30.7931662,61.743575 L29.3252087,60.5677382 L57.3308469,14.2339039 Z M45.750508,31.8999527 L28.6462254,60.2032885 L28.0211331,60.0811429 C34.2682428,50.18445 39.9799346,41.107207 45.1562086,32.8494139 L45.750508,31.8999527 Z M56.4317274,13.9184842 L27.7348914,59.5434476 L55.7804457,13.9184842 L56.4317274,13.9184842 Z M55.0830428,12.4553268 L24.6970368,59.2588901 L54.4580274,12.4553268 L55.0830428,12.4553268 Z M53.514093,12.4553268 L24.4914059,58.2914174 L23.7518242,58.6841873 L53.514093,12.4553268 Z M52.5761564,11.8457295 L22.472291,57.7841133 L51.7070914,11.8457295 L52.5761564,11.8457295 Z M17.781508,30.3519527 L4.25419124,49.7157471 L3.83253837,49.9396744 L17.781508,30.3519527 Z M39.0116326,2.78195952 L5.72987351,48.9320562 L23.5508633,23.253604 L39.0116326,2.78195952 Z M36.0772526,2.20123856 L36.2673684,2.55836454 L3.67053781,48.6193742 L3.24888494,48.8433015 L36.0772526,2.20123856 Z M35.9382795,1.47606998 L36.1283952,1.83319596 L3.44731533,48.2000584 L3.02566246,48.4239858 L35.9382795,1.47606998 Z M35.4378159,0.642952716 L35.4719503,1.06419906 L1.48250799,48.3811487 L1.67975411,47.9066257 L35.4378159,0.642952716 Z M56.6508519,14.4438918 C53.5002367,19.5110941 50.0636957,25.0159021 46.3412289,30.9583157 L45.755508,31.8919527 L56.4871465,14.1363767 C56.8711927,13.8525254 56.9257611,13.9550304 56.6508519,14.4438918 Z M37.2432909,3.02668425 L17.781508,30.3519527 L36.1318107,4.08885274 L37.2432909,3.02668425 Z" id="形状结合"></path>
                        </g>
                        <g id="编组-29" transform="translate(117.501075, 173.406617) scale(1, -1) rotate(128.000000) translate(-117.501075, -173.406617) translate(85.052183, 143.688523)" fill="#FFC594">
                            <path d="M59.901369,22.5478701 L35.0284018,58.8307471 L33.3315504,59.0840165 L58.5969442,24.2304082 L59.901369,22.5478701 Z M64.0777142,18.6477835 C50.4464075,38.4127748 41.3574166,51.6952042 36.8107415,58.4950717 C36.0759061,59.5940689 36.5952527,57.6577535 36.0754102,58.2668241 L36.0282325,58.32607 L36.054388,58.2892323 C37.2099766,56.6591839 46.363707,43.7104805 63.5155791,19.4431222 Z M56.5128015,20.9669659 L33.2003059,57.2798516 L55.2083767,22.6495041 L56.5128015,20.9669659 Z M61.490978,18.4956745 L61.7792547,18.5154451 L34.3580683,57.0178648 L61.490978,18.4956745 Z M55.9725831,20.5761296 L33.6307991,55.5115571 L33.1844998,54.9410068 L54.6681583,22.2586677 L55.9725831,20.5761296 Z M56.7356879,18.3296092 L31.5247691,55.2250782 L56.0844062,18.3296092 L56.7356879,18.3296092 Z M54.791724,18.2674942 L30.3962661,54.5323069 L27.9933234,54.6453381 L54.1667087,18.2674942 L54.791724,18.2674942 Z M39.326847,1.47606998 L39.5169628,1.83319596 L2.58299589,54.3526737 L2.16134302,54.576601 L39.326847,1.47606998 Z M34.2474628,5.61547728 L35.7693645,5.80910907 L0.719232488,54.4760829 L0.916478605,54.0015598 L34.2474628,5.61547728 Z M39.4658201,2.20123856 L39.6559359,2.55836454 L4.67292418,53.3326036 L4.2512713,53.5565309 L39.4658201,2.20123856 Z M42.4002001,2.78195952 L6.00149175,53.2131183 L26.9394308,23.253604 L42.4002001,2.78195952 Z M52.3709446,17.9086393 L28.0024674,52.6690097 L27.2628857,53.0617795 L52.3709446,17.9086393 Z M20.1922325,32.05907 L6.13332515,52.4055967 L5.71167228,52.629524 L20.1922325,32.05907 Z M40.6318584,3.02668425 L20.1922325,32.05907 L39.5203782,4.08885274 L40.6318584,3.02668425 Z" id="形状结合"></path>
                        </g>
                        <g id="编组-30" transform="translate(163.469248, 135.427973) rotate(15.000000) translate(-163.469248, -135.427973) translate(50.105193, 32.202167)">
                            <polygon id="路径-389" fill="#FFE7C7" points="202.041853 84.569386 202.067499 125.183316 216.719992 125.183316 217.645667 84.569386"></polygon>
                            <polygon id="路径-389" fill="#FFE7C7" points="202.067499 93.7497024 202.067499 125.183316 197.185342 125.183316 197.185342 94.5332343"></polygon>
                            <path d="M198.925152,94.478699 L199.62642,122.951293 L198.45515,123.523087 L198.925152,94.478699 Z M201.994594,93.8382707 L202.787322,122.73687 L202.299734,123.523087 L202.26715,122.018271 L202.005452,122.439818 L201.21515,97.6842707 L201.452592,122.439818 L200.863331,122.907086 L200.863331,93.9457403 L201.179665,93.8920055 L201.18515,94.5262707 L202.23215,120.309271 L201.67826,93.8920055 L201.994594,93.8382707 Z M199.478685,94.2048605 L200.60545,121.969038 L200.311168,122.439818 L199.419555,94.478699 L199.478685,94.2048605 Z" id="形状结合" fill="#FFC594"></path>
                            <mask id="mask-4" fill="white">
                                <use xlink:href="#path-3"></use>
                            </mask>
                            <use id="路径-389" fill="#FFE7C7" xlink:href="#path-3"></use>
                            <polygon id="路径-406" fill="#FFC594" mask="url(#mask-4)" points="186.688647 81.6206314 185.824132 127.018574 188.981887 125.027451 190.300168 81.6206314"></polygon>
                            <mask id="mask-6" fill="white">
                                <use xlink:href="#path-5"></use>
                            </mask>
                            <use id="路径-389" fill="#FFE7C7" xlink:href="#path-5"></use>
                            <mask id="mask-8" fill="white">
                                <use xlink:href="#path-7"></use>
                            </mask>
                            <use id="路径-389" fill="#FFE7C7" xlink:href="#path-7"></use>
                            <polygon id="路径-437" fill="#FFC594" mask="url(#mask-8)" points="186.257023 14.1406875 177.848946 59.7803704 179.138754 59.0296413 188.635544 14.5169553"></polygon>
                            <polygon id="路径-438" fill="#FFC594" mask="url(#mask-8)" points="191.691607 13.3160638 183.48999 57.3014052 186.716854 55.1928905 195.55981 13.9279904"></polygon>
                            <polygon id="路径-350" fill="#FFC594" mask="url(#mask-8)" points="200.665431 9.26295831 194.89268 56.3115985 205.628559 53.4468843 211.674132 8.36660693 205.413449 8.27424136 200.695644 36.6685353"></polygon>
                            <path d="M134.699813,29.532792 L129.597478,71.4342271 L132.755232,69.4431049 C136.866834,53.0036069 139.897195,38.6381266 141.846315,26.3466639 C140.832258,27.0851963 138.450091,28.147239 134.699813,29.532792 Z" id="路径-406" fill="#FFC594"></path>
                            <polygon id="路径-389" fill="#FFE7C7" points="108.973668 106.700709 105.313573 145.403586 170.432148 128.008638 170.626943 88.7044007 170.74582 102.387119 166.496151 103.694192 166.582473 89.7889224"></polygon>
                            <polygon id="路径-389" fill="#FFE7C7" points="187.569914 75.6625778 187.594113 127.964801 198.925152 125.595299 197.639178 73.5937108"></polygon>
                            <polygon id="路径-386" fill="#FFE7C7" points="176.371137 146.991654 171.954252 148.129267 168.44771 179.869242 174.665566 178.489246"></polygon>
                            <polygon id="路径-386" fill="#FFE7C7" points="191.760804 127.95772 201.675627 125.125381 201.196898 173.021934 190.300168 174.885637"></polygon>
                            <polygon id="路径-388" fill="#FFC594" points="192.712331 130.292076 193.661539 172.967605 192.712331 173.314235"></polygon>
                            <polygon id="路径-388" fill="#FFC594" points="196.100898 123.523087 196.575502 172.698853 196.100898 172.37598"></polygon>
                            <polygon id="路径-388" fill="#FFC594" points="197.795182 129.878516 198.360839 129.878516 197.795182 173.314235"></polygon>
                            <polygon id="路径-386" fill="#FFE7C7" points="176.693779 140.565346 192.300548 137.410379 193.28502 173.703212 174.665566 178.489246"></polygon>
                            <polygon id="路径-386" fill="#FFE7C7" points="205.644322 124.629584 214.69633 121.911222 214.632866 170.196611 202.067499 172.698853"></polygon>
                            <polygon id="路径-386" fill="#FFC594" points="206.193385 125.1072 201.560696 125.1072 201.196898 172.698853 202.067499 172.698853"></polygon>
                            <polygon id="路径-388" fill="#FFC594" points="176.371137 147.530848 176.371137 178.304683 174.665566 178.489246"></polygon>
                            <polygon id="路径-388" fill="#FFC594" points="175.518352 147.426535 172.409424 178.489246 171.287873 178.489246 173.844396 147.566643"></polygon>
                            <polygon id="路径-388" fill="#FFC594" points="172.904236 147.878989 170.024398 178.489246 170.992324 178.489246 173.403112 147.878989"></polygon>
                            <polygon id="路径-388" fill="#D29C9C" points="174.665566 147.436096 173.743364 177.428448 174.599425 147.436096"></polygon>
                            <polygon id="路径-381" fill="#FFBF89" points="20.761661 94.3180035 0.554865632 157.697012 22.4196475 95.1739303"></polygon>
                            <path d="M226.489381,-0.00713507436 L218.240716,176.637867 C190.805078,180.957459 171.593357,184.47081 160.605553,187.177921 C136.780424,193.047817 103.534333,200.858586 96.5752617,204.749143 C96.4754624,204.292226 95.6672503,197.598981 97.8164922,196.920972 C133.858409,185.551027 171.063857,176.326873 209.432835,169.24851 L209.432835,169.24851 L211.988204,124.323865 L102.265549,150.881652 L103.699164,143.948227 L212.435204,116.476865 L215.963204,54.4688649 L111.191529,79.8270133 L112.625144,72.8935882 L216.407204,46.6728649 L218.575603,8.56734615 C186.133518,15.222641 154.092016,23.88081 122.451098,34.5418532 L119.660292,35.4877312 C119.737631,34.2054073 120.6905,28.1964592 120.998219,26.2559329 C158.083977,13.1608938 193.247697,4.40653782 226.489381,-0.00713507436 L226.489381,-0.00713507436 Z" id="形状结合" fill="#FFB257"></path>
                            <path d="M181.939141,143.817625 C181.891825,144.108061 181.669187,147.430332 181.637623,147.90346 L181.633898,147.95939 C181.633898,147.970997 181.092912,148.059893 180.010942,148.226076 L180.010942,148.226076 L180.186016,144.195111 C181.354766,143.943453 181.939141,143.817625 181.939141,143.817625 Z M183.022938,143.633594 L183.022938,147.732934 C183.022938,147.744542 182.661673,147.808975 181.939141,147.926235 L181.939141,147.926235 L181.978851,143.818528 C182.674909,143.695239 183.022938,143.633594 183.022938,143.633594 L183.022938,143.633594 Z M184.163043,143.442927 C184.240744,144.144346 184.051928,147.566643 184.051928,147.566643 C184.051928,147.57825 183.817298,147.62182 183.348036,147.697352 L183.348036,147.697352 L183.101686,143.633594 C183.809258,143.506482 184.163043,143.442927 184.163043,143.442927 Z M184.95044,143.28934 C184.95044,145.138531 184.888393,147.426535 184.888393,147.426535 C184.888393,147.438142 184.699039,147.484845 184.320331,147.566643 L184.320331,147.566643 L184.320331,143.397997 C184.740404,143.325559 184.95044,143.28934 184.95044,143.28934 Z M201.902507,143.327246 C201.902507,145.176437 201.835341,147.487164 201.835341,147.487164 C201.835341,147.498771 201.644617,147.525264 201.263169,147.566643 L201.263169,147.566643 L201.263169,143.397997 C201.689394,143.35083 201.902507,143.327246 201.902507,143.327246 Z M190.74954,142.071539 C190.74954,143.92073 190.58641,146.272566 190.58641,146.272566 C190.58641,146.284173 188.722222,146.668829 184.993846,147.426535 L184.993846,147.426535 L185.093121,143.257837 C188.635525,142.514903 190.514073,142.120923 190.728764,142.075897 Z M192.408749,74.6679147 L190.007063,121.723063 L190.465332,75.0569931 L192.408749,74.6679147 Z M184.880611,91.1104652 L184.880611,96.5630662 C182.579926,96.5630662 178.573927,97.2526762 172.862613,98.6318961 L172.862613,98.6318961 L173.039136,93.2471543 C177.2179,91.8226949 181.165059,91.1104652 184.880611,91.1104652 L184.880611,91.1104652 Z" id="形状结合" fill="#FFC594"></path>
                        </g>
                        <path d="M105.932015,3.32617431e-11 C122.773038,3.32617431e-11 139.072389,5.9857859 154.830069,17.9573577 C171.988001,31.4341886 183.974287,46.4666528 190.788925,63.0547504 C154.98608,150.085328 131.706379,205.451638 120.949822,229.153683 C98.0849882,198.899444 66.660613,169.999307 26.6766962,142.453272 L105.932015,3.32617431e-11 Z M60.7793901,95.6671374 L35.326809,140.772742 C61.2988937,156.912188 89.4784088,181.807287 119.865354,215.458038 C124.276729,205.737585 130.374905,191.634283 138.159882,173.14813 C131.780718,157.452886 122.634036,142.076043 104.166187,124.330951 C92.7203358,114.024082 78.2580703,104.469478 60.7793901,95.6671374 Z M87.3746962,48.53 L64.2623794,89.4879878 C79.1799402,96.5776312 127.105,124.013759 142.157167,163.631157 C148.676977,148.046008 156.231805,129.778148 164.81813,108.83013 C157.097726,96.7630924 141.621415,83.6089692 134.995036,77.2440742 C119.511533,64.2602645 103.630932,54.686564 87.3532332,48.5229728 L87.3746962,48.53 Z M110.871348,6.89082208 L91.1879568,41.772138 C102.942758,48.0156828 135.169134,60.7099646 167.809981,101.522922 C172.341423,90.4498883 177.145797,78.666247 182.222369,66.1753474 C178.694817,51.6928497 168.352075,37.7131854 151.194143,24.2363545 C134.883904,12.6726662 121.442972,6.89082208 110.871348,6.89082208 L110.871348,6.89082208 Z" id="形状结合" fill="#FFB257"></path>
                        <path d="M10.2008704,150.670721 L26.6766962,142.453272 C67.5730185,168.615505 98.9958921,197.514974 120.945317,229.15168 C92.6124232,199.160038 55.6976077,172.999718 10.2008704,150.670721 Z" id="路径-411" fill="#FFE1BB"></path>
                    </g>
                </g>
            </g>
        </g>
    </g>
</svg>